<svg xmlns="http://www.w3.org/2000/svg" version="1.1" xmlns:xlink="http://www.w3.org/1999/xlink" width="512" height="512" x="0" y="0" viewBox="0 0 512 512" style="enable-background:new 0 0 512 512" xml:space="preserve"><g><path d="M296 315.982h-80v40h80zm0-80h-80v40h80zm120 0h-80v40h80zm0 80h-80v40h80zm0 80h-80v40h80zm-120 0h-80v40h80zm-120 0H96v40h80zm276-360h-56V.018h-40v35.964H156V.018h-40v35.964H60c-33.084 0-60 26.916-60 60v356c0 33.084 26.916 60 60 60h392c33.084 0 60-26.916 60-60v-356c0-33.084-26.916-60-60-60zm20 416c0 11.028-8.972 20-20 20H60c-11.028 0-20-8.972-20-20v-256h432zm0-296H40v-60c0-11.028 8.972-20 20-20h56v40h40v-40h200v40h40v-40h56c11.028 0 20 8.972 20 20zm-296 160H96v40h80zm0-80H96v40h80z" fill="#5f5f5f" opacity="1" data-original="#000000"></path></g></svg>