<?xml version="1.0" encoding="UTF-8"?>
<svg xmlns="http://www.w3.org/2000/svg" xmlns:xlink="http://www.w3.org/1999/xlink" version="1.1" id="Capa_1" x="0px" y="0px" viewBox="0 0 512 512" style="enable-background:new 0 0 512 512;" xml:space="preserve" width="512" height="512">
<g>
	<g>
		<path style="fill:none;stroke:#000000;stroke-width:20;stroke-linecap:round;stroke-linejoin:round;stroke-miterlimit:10;" d="&#10;&#9;&#9;&#9;M10.032,350.945v95.364c0,22.545,15.023,37.578,33.567,37.578h424.834c18.544,0,33.577-15.043,33.567-37.588l-0.1-348.771&#10;&#9;&#9;&#9;c0.072-7.616-6.25-18.712-16.163-24.695c-5.239-3.174-11.268-4.874-17.413-4.861h-31.366v20.874&#10;&#9;&#9;&#9;c0,11.762-9.532,21.294-21.294,21.294c-11.752,0-21.284-9.532-21.284-21.294V67.972h-62.412v20.874&#10;&#9;&#9;&#9;c0,11.762-9.532,21.294-21.294,21.294c-11.752,0-21.294-9.532-21.294-21.294V67.972h-62.402v20.874&#10;&#9;&#9;&#9;c0,11.762-9.532,21.294-21.294,21.294s-21.294-9.532-21.294-21.294V67.972h-62.402v20.874c0,11.762-9.532,21.294-21.294,21.294&#10;&#9;&#9;&#9;s-21.294-9.532-21.294-21.294V67.972H43.599c-18.544,0-33.567,15.033-33.567,29.566v165.397"/>
		<path style="fill:none;stroke:#000000;stroke-width:20;stroke-linecap:round;stroke-linejoin:round;stroke-miterlimit:10;" d="&#10;&#9;&#9;&#9;M501.89,97.527v64.943H10.033V97.537c0-14.559,15.023-29.566,33.567-29.566h35.797v20.874c0,11.762,9.532,21.294,21.294,21.294&#10;&#9;&#9;&#9;s21.294-9.532,21.294-21.294V67.972h62.402v20.874c0,11.762,9.532,21.294,21.294,21.294c11.762,0,21.294-9.532,21.294-21.294&#10;&#9;&#9;&#9;V67.972h62.402v20.874c0,11.762,9.542,21.294,21.294,21.294c11.762,0,21.294-9.532,21.294-21.294V67.972h62.412v20.874&#10;&#9;&#9;&#9;c0,11.762,9.532,21.294,21.284,21.294c11.762,0,21.294-9.532,21.294-21.294V67.972h31.366c6.146-0.015,12.174,1.687,17.413,4.861&#10;&#9;&#9;&#9;C495.654,78.817,501.89,89.811,501.89,97.527z"/>
	</g>
	<path style="fill:none;stroke:#000000;stroke-width:20;stroke-linecap:round;stroke-linejoin:round;stroke-miterlimit:10;" d="&#10;&#9;&#9;M100.695,110.137h-0.008c-11.757,0-21.287-9.531-21.287-21.287V49.401c0-11.757,9.531-21.287,21.287-21.287h0.008&#10;&#9;&#9;c11.757,0,21.287,9.531,21.287,21.287V88.85C121.982,100.607,112.452,110.137,100.695,110.137z"/>
	<path style="fill:none;stroke:#000000;stroke-width:20;stroke-linecap:round;stroke-linejoin:round;stroke-miterlimit:10;" d="&#10;&#9;&#9;M205.687,110.137h-0.008c-11.757,0-21.287-9.531-21.287-21.287V49.401c0-11.757,9.531-21.287,21.287-21.287h0.008&#10;&#9;&#9;c11.757,0,21.287,9.531,21.287,21.287V88.85C226.974,100.607,217.443,110.137,205.687,110.137z"/>
	<path style="fill:none;stroke:#000000;stroke-width:20;stroke-linecap:round;stroke-linejoin:round;stroke-miterlimit:10;" d="&#10;&#9;&#9;M310.678,110.137h-0.008c-11.757,0-21.287-9.531-21.287-21.287V49.401c0-11.757,9.531-21.287,21.287-21.287h0.008&#10;&#9;&#9;c11.757,0,21.287,9.531,21.287,21.287V88.85C331.965,100.607,322.435,110.137,310.678,110.137z"/>
	<path style="fill:none;stroke:#000000;stroke-width:20;stroke-linecap:round;stroke-linejoin:round;stroke-miterlimit:10;" d="&#10;&#9;&#9;M415.67,110.137h-0.008c-11.757,0-21.287-9.531-21.287-21.287V49.401c0-11.757,9.531-21.287,21.287-21.287h0.008&#10;&#9;&#9;c11.757,0,21.287,9.531,21.287,21.287V88.85C436.957,100.607,427.426,110.137,415.67,110.137z"/>
	<g>
		<g>
			<path style="fill:none;stroke:#000000;stroke-width:20;stroke-linecap:round;stroke-linejoin:round;stroke-miterlimit:10;" d="&#10;&#9;&#9;&#9;&#9;M200.955,429.081l23.994-62.999c0.49-1.199,2.187-1.2,2.68-0.003l23.776,63.001"/>
			
				<line style="fill:none;stroke:#000000;stroke-width:20;stroke-linecap:round;stroke-linejoin:round;stroke-miterlimit:10;" x1="208.439" y1="413.39" x2="244.043" y2="413.39"/>
		</g>
		<g>
			<path style="fill:none;stroke:#000000;stroke-width:20;stroke-linecap:round;stroke-linejoin:round;stroke-miterlimit:10;" d="&#10;&#9;&#9;&#9;&#9;M379.904,371.751c0,0-11.466-9.638-24.987-5.565c-12.415,3.74-14.152,18.056-5.17,23.911c0,0,8.814,3.932,18.589,7.538&#10;&#9;&#9;&#9;&#9;c23.532,8.68,13.395,31.446-5.549,31.446c-9.486,0-17.448-4.154-22.267-9.472"/>
		</g>
		<g>
			
				<polyline style="fill:none;stroke:#000000;stroke-width:20;stroke-linecap:round;stroke-linejoin:round;stroke-miterlimit:10;" points="&#10;&#9;&#9;&#9;&#9;272.395,365.182 292.805,396.44 313.048,365.344 &#9;&#9;&#9;"/>
			
				<line style="fill:none;stroke:#000000;stroke-width:20;stroke-linecap:round;stroke-linejoin:round;stroke-miterlimit:10;" x1="292.725" y1="429.081" x2="292.805" y2="396.44"/>
		</g>
		<g>
			
				<line style="fill:none;stroke:#000000;stroke-width:20;stroke-linecap:round;stroke-linejoin:round;stroke-miterlimit:10;" x1="130.081" y1="365.41" x2="130.081" y2="428.045"/>
			<path style="fill:none;stroke:#000000;stroke-width:20;stroke-linecap:round;stroke-linejoin:round;stroke-miterlimit:10;" d="&#10;&#9;&#9;&#9;&#9;M173.872,397.212c0,17.562-9.747,31.458-25.211,31.728c-5.147,0.09-18.451,0.14-18.451,0.14s-0.083-23.086-0.083-31.939&#10;&#9;&#9;&#9;&#9;c0-7.27-0.046-31.798-0.046-31.798s11.968,0,18.052,0C165.094,365.344,173.872,379.65,173.872,397.212z"/>
		</g>
	</g>
	<g>
		<g>
			<g>
				<path style="fill:none;stroke:#000000;stroke-width:20;stroke-linecap:round;stroke-linejoin:round;stroke-miterlimit:10;" d="&#10;&#9;&#9;&#9;&#9;&#9;M332.336,282.327c0,17.02-13.798,30.818-30.818,30.818c-17.02,0-30.818-13.798-30.818-30.818v-43.284&#10;&#9;&#9;&#9;&#9;&#9;c0-17.02,13.798-30.818,30.818-30.818c17.02,0,30.818,13.798,30.818,30.818V282.327z"/>
			</g>
		</g>
		<g>
			<path style="fill:none;stroke:#000000;stroke-width:20;stroke-linecap:round;stroke-linejoin:round;stroke-miterlimit:10;" d="&#10;&#9;&#9;&#9;&#9;M180.255,229.432c2.374-12.088,13.028-21.207,25.812-21.207c14.528,0,26.306,11.777,26.306,26.305&#10;&#9;&#9;&#9;&#9;c0,14.528-11.777,26.306-26.306,26.306"/>
			<path style="fill:none;stroke:#000000;stroke-width:20;stroke-linecap:round;stroke-linejoin:round;stroke-miterlimit:10;" d="&#10;&#9;&#9;&#9;&#9;M206.067,260.837c14.528,0,26.306,11.777,26.306,26.305c0,14.528-11.777,26.305-26.306,26.305&#10;&#9;&#9;&#9;&#9;c-13.283,0-24.267-9.845-26.052-22.636c-0.167-1.199-0.254-2.424-0.254-3.669"/>
		</g>
	</g>
	
		<line style="fill:none;stroke:#000000;stroke-width:20;stroke-linecap:round;stroke-linejoin:round;stroke-miterlimit:10;" x1="10" y1="307.229" x2="10" y2="307.229"/>
</g>















</svg>
