<svg id="Capa_1" enable-background="new 0 0 512 512" height="512" viewBox="0 0 512 512" width="512" xmlns="http://www.w3.org/2000/svg"><g><path d="m280.048 368.742h-248.5c-9.125 0-16.548-7.423-16.548-16.548v-224.968h385.807v120.758c0 4.142 3.358 7.5 7.5 7.5s7.5-3.358 7.5-7.5v-160.323c0-17.396-14.152-31.548-31.548-31.548h-8.533v-.516c0-12.976-10.557-23.532-23.532-23.532s-23.532 10.557-23.532 23.532v.516h-241.517v-.516c0-12.976-10.557-23.532-23.532-23.532s-23.532 10.556-23.532 23.532v.516h-8.532c-17.397 0-31.549 14.152-31.549 31.548v264.532c0 17.396 14.152 31.548 31.548 31.548h248.5c4.142 0 7.5-3.358 7.5-7.5s-3.358-7.499-7.5-7.499zm63.613-313.145c0-4.705 3.828-8.532 8.532-8.532s8.532 3.828 8.532 8.532v16.032c0 4.705-3.828 8.532-8.532 8.532s-8.532-3.828-8.532-8.532zm-288.58 0c0-4.705 3.828-8.532 8.532-8.532s8.532 3.828 8.532 8.532v16.032c0 4.705-3.828 8.532-8.532 8.532s-8.532-3.828-8.532-8.532zm-23.533 15.516h8.532v.516c0 12.976 10.557 23.532 23.532 23.532s23.532-10.557 23.532-23.532v-.516h241.516v.516c0 12.976 10.557 23.532 23.532 23.532s23.532-10.557 23.532-23.532v-.516h8.533c9.125 0 16.548 7.423 16.548 16.548v24.564h-385.805v-24.564c0-9.125 7.423-16.548 16.548-16.548z"/><path d="m408.307 272.548c-57.177 0-103.694 46.517-103.694 103.693s46.517 103.694 103.694 103.694 103.693-46.517 103.693-103.693-46.517-103.694-103.693-103.694zm0 192.388c-48.906 0-88.694-39.788-88.694-88.694s39.788-88.693 88.694-88.693 88.693 39.787 88.693 88.693-39.788 88.694-88.693 88.694z"/><path d="m408.307 327.629c4.142 0 7.5-3.358 7.5-7.5v-8.016c0-4.142-3.358-7.5-7.5-7.5s-7.5 3.358-7.5 7.5v8.016c0 4.142 3.358 7.5 7.5 7.5z"/><path d="m408.307 424.855c-4.142 0-7.5 3.358-7.5 7.5v8.016c0 4.142 3.358 7.5 7.5 7.5s7.5-3.358 7.5-7.5v-8.016c0-4.142-3.358-7.5-7.5-7.5z"/><path d="m472.436 368.742h-8.016c-4.142 0-7.5 3.358-7.5 7.5s3.358 7.5 7.5 7.5h8.016c4.142 0 7.5-3.358 7.5-7.5s-3.358-7.5-7.5-7.5z"/><path d="m352.193 368.742h-8.016c-4.142 0-7.5 3.358-7.5 7.5s3.358 7.5 7.5 7.5h8.016c4.142 0 7.5-3.358 7.5-7.5s-3.358-7.5-7.5-7.5z"/><path d="m443.084 330.858-34.777 34.777-34.778-34.777c-2.929-2.929-7.678-2.929-10.606 0-2.929 2.929-2.929 7.678 0 10.606l40.081 40.081c1.464 1.464 3.384 2.197 5.303 2.197s3.839-.732 5.303-2.197l40.081-40.081c2.929-2.929 2.929-7.678 0-10.606-2.929-2.929-7.678-2.929-10.607 0z"/><path d="m83.798 318.704c.982.432 2.006.636 3.014.636 2.884 0 5.635-1.674 6.87-4.484l52.522-119.48c1.02-2.319.799-4.996-.585-7.118s-3.747-3.4-6.28-3.4h-65.73c-4.142 0-7.5 3.358-7.5 7.5s3.358 7.5 7.5 7.5h54.239l-47.897 108.962c-1.667 3.792.055 8.218 3.847 9.884z"/><path d="m257.542 189.337c-1.322-3.215-4.421-5.291-7.896-5.291-.002 0-.005 0-.008 0-3.479.003-6.578 2.085-7.895 5.305-.023.057-.046.113-.067.17l-17.199 45.159c-1.474 3.871.468 8.204 4.339 9.678 3.872 1.476 8.204-.469 9.678-4.339l2.444-6.417h17.28l2.413 6.395c1.134 3.003 3.987 4.854 7.019 4.854.879 0 1.775-.156 2.646-.485 3.875-1.463 5.832-5.79 4.369-9.665l-17.043-45.161c-.026-.067-.053-.135-.08-.203zm-10.892 29.266 2.967-7.79 2.94 7.79z"/><path d="m178.358 184.724c-1.992 0-3.901.792-5.308 2.202s-2.196 3.321-2.192 5.312c0 0 .032 17.095.032 22.161 0 6.181.058 22.3.058 22.3.007 1.99.805 3.895 2.216 5.296 1.405 1.395 3.305 2.177 5.284 2.177h.028c.381-.001 9.37-.036 12.97-.099 14.458-.253 24.951-12.712 24.951-29.625 0-17.779-10.228-29.725-25.45-29.725h-12.589zm23.039 29.724c0 7.192-3.158 14.504-10.212 14.627-1.252.022-3.232.041-5.262.055-.016-5.046-.033-11.366-.033-14.732 0-2.831-.01-9.411-.019-14.675h5.076c9.697.001 10.45 11.271 10.45 14.725z"/><path d="m350.292 229.85c-4.06 0-7.949-1.617-10.404-4.326-2.781-3.069-7.524-3.303-10.594-.521-3.069 2.782-3.303 7.524-.521 10.594 5.329 5.881 13.172 9.253 21.519 9.253 10.514 0 19.354-6.775 21.021-16.109 1.266-7.094-1.864-16.327-14.449-20.969-5.306-1.957-10.268-4.082-12.11-4.885-.297-.312-.411-.72-.339-1.218.143-.997 1.017-1.807 2.398-2.223 5.488-1.651 10.753 2.418 10.973 2.592 3.172 2.619 7.866 2.196 10.516-.958 2.665-3.171 2.255-7.902-.916-10.567-4.206-3.536-14.184-8.656-24.9-5.429-6.992 2.106-11.942 7.645-12.92 14.454-.923 6.432 1.867 12.62 7.281 16.15.332.216.679.405 1.04.566.268.119 6.627 2.951 13.786 5.591 2.438.899 5.177 2.554 4.873 4.259-.27 1.511-2.444 3.746-6.254 3.746z"/><path d="m305.424 216.187 13.302-20.433c2.26-3.472 1.277-8.118-2.194-10.377-3.471-2.258-8.117-1.278-10.377 2.194l-8.235 12.65-8.341-12.774c-2.265-3.468-6.913-4.443-10.38-2.179-3.468 2.265-4.444 6.912-2.179 10.38l13.405 20.529-.052 21.156c-.01 4.143 3.339 7.508 7.481 7.519h.019c4.133 0 7.489-3.346 7.5-7.481z"/></g></svg>