<svg xmlns="http://www.w3.org/2000/svg" version="1.1" xmlns:xlink="http://www.w3.org/1999/xlink" x="0" y="0" viewBox="0 0 24 24" style="enable-background:new 0 0 512 512" xml:space="preserve" class=""><circle r="12" cx="12" cy="12" fill="#ff4b1a" shape="circle"></circle><g transform="matrix(0.7,0,0,0.7,3.5971661567687985,3.5999314427375797)"><path fill="#ffffff" fill-rule="evenodd" d="M11.576 2.094a1 1 0 0 1 1.064.138l6 5a1 1 0 0 1 0 1.536L14.762 12l3.878 3.232a1 1 0 0 1 0 1.536l-6 5A1 1 0 0 1 11 21v-5.865l-4.36 3.633a1 1 0 1 1-1.28-1.536l5.64-4.7v-1.064l-5.64-4.7a1 1 0 1 1 1.28-1.536L11 8.865V3a1 1 0 0 1 .576-.906zm1.624 8.604-.2-.166V5.135L16.438 8zm0 2.604-.2.166v5.397L16.438 16z" clip-rule="evenodd" opacity="1" data-original="#000000"></path></g></svg>