<svg xmlns="http://www.w3.org/2000/svg" version="1.1" xmlns:xlink="http://www.w3.org/1999/xlink" x="0" y="0" viewBox="0 0 100 100" style="enable-background:new 0 0 512 512" xml:space="preserve"><circle r="50" cx="50" cy="50" fill="#ff4b1a" shape="circle"></circle><g transform="matrix(0.5899999999999997,0,0,0.5899999999999997,20.50000146627427,20.499904594421395)"><path d="M97.49 63.559a3.392 3.392 0 0 0-3.392-3.392H66.961a6.784 6.784 0 0 0-6.785 6.784v27.137a3.392 3.392 0 1 0 6.785 0v-22.32L91.69 96.497a3.392 3.392 0 0 0 4.816 0 3.392 3.392 0 0 0 0-4.783L71.744 66.95h22.354a3.392 3.392 0 0 0 3.392-3.392zM96.506 3.518a3.392 3.392 0 0 0-4.816 0L66.96 28.246V5.892a3.392 3.392 0 1 0-6.784 0V33.03a6.784 6.784 0 0 0 6.785 6.785h27.137a3.392 3.392 0 0 0 0-6.785H71.744L96.506 8.301a3.392 3.392 0 0 0 0-4.783zM3.494 96.497a3.392 3.392 0 0 0 4.816 0l24.73-24.73v22.321a3.392 3.392 0 1 0 6.784 0V66.951a6.784 6.784 0 0 0-6.785-6.784H5.902a3.392 3.392 0 0 0 0 6.784h22.354L3.494 91.714a3.392 3.392 0 0 0 0 4.783zM2.51 36.422a3.392 3.392 0 0 0 3.392 3.392h27.137a6.784 6.784 0 0 0 6.785-6.785V5.892a3.392 3.392 0 1 0-6.785 0v22.354L8.31 3.518a3.392 3.392 0 0 0-4.816 0 3.392 3.392 0 0 0 0 4.783l24.762 24.728H5.902a3.392 3.392 0 0 0-3.392 3.393z" fill="#ffffff" opacity="1" data-original="#000000"></path></g></svg>