<svg fill="none" viewBox="0 0 236 237" xmlns="http://www.w3.org/2000/svg" id="fi_17541460"><g fill="rgb(0,0,0)"><path d="m135.923 40.1616h-42.4777c-2.0227 0-3.6777-1.655-3.6777-3.6777 0-2.0228 1.655-3.6777 3.6777-3.6777h42.4777c2.023 0 3.678 1.6549 3.678 3.6777 0 2.0227-1.655 3.6777-3.678 3.6777z"></path><path d="m93.4453 204.372h-57.7405c-8.6426 0-15.8142-7.171-15.8142-15.814v-139.754c0-8.6427 7.1716-15.8143 15.8142-15.8143h33.4676c2.0227 0 3.6777 1.655 3.6777 3.6778 0 2.0227-1.655 3.6777-3.6777 3.6777h-33.4676c-4.5971 0-8.4587 3.8616-8.4587 8.4588v139.754c0 4.597 3.8616 8.459 8.4587 8.459h57.7405c2.0228 0 3.6777 1.655 3.6777 3.677 0 2.023-1.6549 3.678-3.6777 3.678z"></path><path d="m205.8 110.039c-2.023 0-3.678-1.655-3.678-3.678v-57.7406c0-4.5971-3.862-8.4588-8.459-8.4588h-33.467c-2.023 0-3.678-1.655-3.678-3.6777 0-2.0228 1.655-3.6777 3.678-3.6777h33.467c8.643 0 15.814 7.1715 15.814 15.8142v57.7406c0 2.023-1.655 3.678-3.677 3.678z"></path><path d="m187.595 82.6392h-145.8221c-2.0227 0-3.6777-1.655-3.6777-3.6778 0-2.0227 1.655-3.6777 3.6777-3.6777h145.8221c2.023 0 3.678 1.655 3.678 3.6777 0 2.0228-1.655 3.6778-3.678 3.6778z"></path><path d="m81.3096 58.3662c-2.0228 0-3.6778-1.655-3.6778-3.6777v-30.3413c0-2.0228 1.655-3.6778 3.6778-3.6778 2.0227 0 3.6777 1.655 3.6777 3.6778v30.3413c0 2.0227-1.655 3.6777-3.6777 3.6777z"></path><path d="m148.06 58.3662c-2.023 0-3.678-1.655-3.678-3.6777v-30.3413c0-2.0228 1.655-3.6778 3.678-3.6778s3.678 1.655 3.678 3.6778v30.3413c0 2.0227-1.655 3.6777-3.678 3.6777z"></path><path d="m148.06 64.6183c-3.678 0-6.804-3.126-6.804-6.8037 0-3.6778 3.126-6.8039 6.804-6.8039s6.804 3.1261 6.804 6.8039c0 3.6777-3.126 6.8037-6.804 6.8037zm0-7.3554c-.368 0-.552.1839-.552.5517 0 .3677.184.5516.552.5516s.551-.1839.551-.5516c0-.3678-.183-.5517-.551-.5517z"></path><path d="m81.3091 64.6183c-3.6777 0-6.8037-3.126-6.8037-6.8037 0-3.6778 3.126-6.8039 6.8037-6.8039s6.8037 3.1261 6.8037 6.8039c0 3.6777-3.126 6.8037-6.8037 6.8037zm0-7.3554c-.3678 0-.5518.1839-.5518.5517 0 .3677.184.5516.5518.5516s.5517-.1839.5517-.5516c0-.3678-.1839-.5517-.5517-.5517z"></path><path d="m163.322 216.509c-28.87 0-52.407-23.538-52.407-52.408s23.537-52.408 52.407-52.408 52.408 23.538 52.408 52.408-23.538 52.408-52.408 52.408zm0-97.46c-24.824 0-45.052 20.227-45.052 45.052s20.228 45.052 45.052 45.052c24.825 0 45.053-20.227 45.053-45.052s-20.228-45.052-45.053-45.052z"></path><path d="m187.595 167.779h-24.273c-2.022 0-3.677-1.655-3.677-3.678v-24.273c0-2.023 1.655-3.678 3.677-3.678 2.023 0 3.678 1.655 3.678 3.678v20.595h20.595c2.023 0 3.678 1.655 3.678 3.678s-1.655 3.678-3.678 3.678z"></path></g></svg>