<svg id="fi_15527105" enable-background="new 0 0 24 24" viewBox="0 0 24 24" xmlns="http://www.w3.org/2000/svg"><g fill="none"><path d="m0 0h24v24h-24z"></path><g stroke="#231f20" stroke-linecap="round" stroke-linejoin="round" stroke-miterlimit="10"><path d="m15.5204 14.9131c-.182-.1842-.4766-.1896-.6681-.0122 0 0-1.367 1.3377-1.4575 1.4214-.0224.0222-.0471.0397-.0752.0539-1.4216.72-6.5528-4.7735-5.5739-5.8065l1.4627-1.4333c.1895-.1865.1903-.4912.0066-.677l-4.7872-4.8815c-.0886-.0908-.2103-.1424-.3372-.1434-.1274-.001-.2486.0491-.34.1376-2.3972 2.3533-6.2401 4.7199 2.7375 13.8768 8.8603 9.0359 11.4004 5.6114 13.8459 2.9815.1757-.1881.1709-.4806-.0085-.6636z"></path><path d="m19.6786 11.3439c.1292-3.9311-3.0673-7.1212-6.9922-6.9922"></path><path d="m23.0682 11.3439c.127-5.7994-4.5765-10.5089-10.3817-10.3817"></path><path d="m12.6865 7.7413c2.0505-.1349 3.7375 1.5534 3.6026 3.6026"></path></g></g></svg>