<svg id="Layer_1" enable-background="new 0 0 500 500" viewBox="0 0 500 500" xmlns="http://www.w3.org/2000/svg"><path clip-rule="evenodd" d="m392.247 222.351c3.702 0 6.708 2.995 6.708 6.669v2.939c7.923.791 15.033 2.543 21.6 5.369 3.396 1.469 4.951 5.425 3.476 8.816s-5.426 4.973-8.816 3.504c-6.629-2.882-14.095-4.408-22.837-4.634h-.057c-4.363.057-8.268.735-11.597 2.091-.04 0-.073 0-.102 0-6.194 2.374-6.901 5.03-7.025 6.33.243 2.317 2.645 4.408 7.155 6.33 3.38 1.368 7.906 2.091 11.93 2.091 14.643 0 31.176 7.044 32.021 21.362.017.339.017.622-.011.961-.928 11.516-11.601 19.053-25.737 20.854v2.995c0 3.73-3.006 6.725-6.708 6.725s-6.702-2.995-6.702-6.725v-2.882c-7.522-.735-14.773-2.487-21.628-5.369-3.419-1.413-5.041-5.312-3.628-8.76 1.424-3.391 5.346-5.03 8.765-3.617 9.821 4.058 24.612 6.759 35.164 2.6 5.934-2.373 6.855-4.973 7.053-6.33-.187-1.3-1.119-3.899-7.098-6.329-3.772-1.475-7.774-2.071-11.908-2.091-5.838-.057-11.354-1.017-16.418-2.995-.068 0-.141-.057-.203-.057-12.433-5.256-15.276-12.942-15.479-18.537 0-.17 0-.396.011-.622.611-11.444 11.151-18.88 25.37-20.967v-3.052c-.001-3.674 3-6.669 6.701-6.669zm-94.339.96h-117.427c3.487 61.771 54.825 110.938 117.426 110.938 14.191 0 27.935-2.486 40.99-7.347-15.802-14.468-25.726-35.265-25.726-58.38 0-52.312 50.026-89.914 99.822-76.295-10.84-51.711-55.204-90.084-108.384-93.08v117.438c.001 3.731-3 6.726-6.701 6.726zm160.004 45.212c0-36.17-29.455-65.614-65.665-65.614-36.209 0-65.664 29.444-65.664 65.614 0 36.226 29.455 65.727 65.664 65.727 36.21 0 65.665-29.501 65.665-65.727zm-291.034-51.937c0 72.282 58.781 131.058 131.029 131.058 18.672 0 36.644-3.843 53.502-11.416 11.93 7.234 25.906 11.416 40.837 11.416 43.607 0 79.081-35.491 79.081-79.121 0-30.857-17.83-57.702-43.737-70.7-9.201-64.257-64.308-112.238-129.684-112.238-3.702 0-6.708 2.995-6.708 6.669v117.664h-117.612c-3.707-.001-6.708 2.995-6.708 6.668zm271.514 229.676c0 1.47-1.232 2.713-2.701 2.713h-22.024c-1.464 0-2.707-1.243-2.707-2.713v-74.882c0-1.469 1.243-2.713 2.707-2.713h22.024c1.469 0 2.701 1.243 2.701 2.713zm-71.282-6.33c-23.68 2.656-49.111 4.578-74.605.848-24.047-3.56-36.882-9.833-58.538-22.38l-82.274-47.472c-4.934-2.826-6.646-9.212-3.781-14.129 2.854-4.973 9.195-6.669 14.14-3.786l69.965 40.408c8.474 4.847 14.327 8.935 26.551 7.008 4.532 6.217 11.778 10.003 19.69 10.003h58.04c3.702 0 6.703-2.995 6.703-6.725 0-3.674-3.001-6.669-6.703-6.669h-58.04c-6.067 0-11.009-5-11.009-11.02 0-6.047 4.945-11.02 11.009-11.02h58.04c.588 0 1.17-.056 1.735-.226 19.028-5.086 34.112-1.978 51.587 1.582 2.588.509 5.233 1.074 7.923 1.583v59.171c-9.918.733-19.746 1.637-30.433 2.824zm68.58-84.659c8.895 0 16.118 7.234 16.118 16.107v74.882c0 8.929-7.223 16.163-16.118 16.163h-22.024c-7.421 0-13.671-5.086-15.542-11.924-9.613.735-19.147 1.582-29.518 2.769-25.576 2.896-51.863 4.631-78.064.735-27.246-4.013-42.081-11.699-63.285-23.962l-82.274-47.472c-11.348-6.556-15.248-21.136-8.692-32.496 6.518-11.302 21.049-15.294 32.462-8.703l69.971 40.408c6.082 3.556 8.437 5.651 15.157 5.651-.872-13.878 10.319-25.827 24.375-25.827h57.17c21.679-5.595 38.786-2.091 56.876 1.582 2.215.452 4.487.961 6.776 1.413 2.577-5.482 8.138-9.325 14.586-9.325h22.026zm-352.979-196.558c.136-.791.22-1.639.22-2.543v-74.882c0-1.582-.237-3.165-.667-4.578l20.515-9.438c19.628-9.268 31.479-14.863 44.754-16.163 9.828-.904 21.023 3.165 37.972 9.325l32.858 11.642c-8.545 3.9-16.644 8.703-24.154 14.298-21.114 0-44.584.565-61.652 18.028-7.352 7.517-7.245 19.667.243 27.071 4.764 4.691 11.535 7.686 20.108 8.929l34.773.057c6.058 0 11.003 4.917 11.003 11.02 0 6.047-4.945 10.964-11.003 10.964h-81.601c-7.901-.678-15.734-1.922-23.369-3.73zm-13.191-2.543c0 1.469-1.232 2.713-2.701 2.713h-22.035c-1.464 0-2.701-1.243-2.701-2.713v-74.882c0-1.469 1.238-2.713 2.701-2.713h22.035c1.469 0 2.701 1.243 2.701 2.713zm84.818-29.105c-5.437-.848-9.511-2.543-12.117-5.143-2.249-2.204-2.278-5.877-.068-8.138 9.319-9.551 21.317-12.659 36.39-13.564-7.692 7.912-14.445 16.898-20.034 26.844h-4.171zm111.633 57.588h-110.718c.17-2.939.458-5.877.831-8.76h31.597c13.467 0 24.42-10.964 24.42-24.414 0-13.451-10.952-24.414-24.42-24.414h-13.49c20.407-31.309 54.328-51.033 91.78-53.124zm-124.321 6.725c0-5.199.317-10.342.91-15.485l-37.322-.057c-10.512-.848-20.911-2.713-30.959-5.369-2.227 1.13-4.77 1.808-7.46 1.808h-22.035c-8.879 0-16.112-7.234-16.112-16.107v-74.88c0-8.873 7.234-16.107 16.112-16.107h22.035c2.023 0 3.945.339 5.725 1.074 6.59-2.769 12.1-5.256 16.293-7.234 21.154-9.987 39.008-19.493 57.419-21.249 12.852-1.243 25.856 3.504 43.844 10.06l18.593 6.612c9.647 3.391 18.068 6.329 28.964 10.625 11.235-3.108 22.99-4.747 35.022-4.747 3.702 0 6.708 3.052 6.708 6.725v124.331c0 3.73-3.007 6.725-6.708 6.725h-124.321c-3.701.001-6.708-2.994-6.708-6.725z" fill-rule="evenodd"/></svg>