<svg id="Layer_1" viewBox="0 0 512 512" xmlns="http://www.w3.org/2000/svg" data-name="Layer 1"><path d="m112.707 387.2a25.244 25.244 0 1 0 25.257 25.257 25.272 25.272 0 0 0 -25.257-25.257zm0 36.483a11.24 11.24 0 1 1 11.254-11.226 11.238 11.238 0 0 1 -11.254 11.225zm345.254-99.294-87.5-11.669c-13.3-13.569-29.949-25.788-48.713-35.933l47.338-81.956a61.961 61.961 0 0 0 53.391-31.16 63.108 63.108 0 0 0 -4.152-68.65 7 7 0 0 0 -11.66.7l-23.576 40.806h-16.889l-8.459-14.654 23.549-40.773a7 7 0 0 0 -5.214-10.451 63.047 63.047 0 0 0 -61.536 30.716 61.856 61.856 0 0 0 -.27 61.809l-8.594 14.884-16.889-4.258a131.9 131.9 0 0 0 -13.151-31.746l13.786-23.078a7 7 0 0 0 -.436-7.828 161.293 161.293 0 0 0 -31.146-31.116 7 7 0 0 0 -7.813-.424l-23.078 13.785a131.1 131.1 0 0 0 -31.749-13.158l-6.57-26.062a7 7 0 0 0 -5.819-5.224 161.609 161.609 0 0 0 -44.039 0 7 7 0 0 0 -5.813 5.214l-6.581 26.074a130.6 130.6 0 0 0 -31.74 13.154l-23.104-13.786a7 7 0 0 0 -7.815.432 161 161 0 0 0 -31.119 31.117 7 7 0 0 0 -.429 7.82l13.786 23.1a131.341 131.341 0 0 0 -13.149 31.726l-26.07 6.571a7 7 0 0 0 -5.229 5.848 161.177 161.177 0 0 0 0 44.007 7 7 0 0 0 5.229 5.848l26.071 6.572a131.865 131.865 0 0 0 13.149 31.742l-13.785 23.073a7 7 0 0 0 .432 7.825q3.908 5.147 8.248 9.993l-15.6 1.273c-10.451.819-18.332 8.914-18.332 18.83v62.305a19.018 19.018 0 0 0 18.794 18.851l35.131.428a52.075 52.075 0 0 0 103.642 1.24l207.827 2.481a52.094 52.094 0 0 0 102.671 1.226l29.934.351h.08a7 7 0 0 0 7-7v-35.973c0-28.091-22.222-50.663-54.039-54.903zm-129.481-157.827a7 7 0 0 0 -.229-7.371 47.372 47.372 0 0 1 -1.584-50.826 48.976 48.976 0 0 1 36.469-23.834l-19.536 33.841a7 7 0 0 0 0 7l12.5 21.657a7 7 0 0 0 6.064 3.5h24.973a7 7 0 0 0 6.063-3.5l19.565-33.865a49.033 49.033 0 0 1 -2.408 43.5 47.449 47.449 0 0 1 -44.815 24.068 6.991 6.991 0 0 0 -6.493 3.487l-49.816 86.246a254.765 254.765 0 0 0 -25.749-10.4c-2.511-.859-5.036-1.667-7.568-2.447zm-281.82 133.955 13.467-22.55a7 7 0 0 0 -.063-7.278 117.983 117.983 0 0 1 -14.664-35.406 7 7 0 0 0 -5.1-5.194l-25.472-6.425a145.885 145.885 0 0 1 0-30.892l25.472-6.425a7 7 0 0 0 5.1-5.2 117.471 117.471 0 0 1 14.662-35.37 7 7 0 0 0 .07-7.279l-13.474-22.584a147.017 147.017 0 0 1 21.825-21.824l22.579 13.472a7 7 0 0 0 7.286-.068 116.773 116.773 0 0 1 35.384-14.658 7 7 0 0 0 5.212-5.12l6.416-25.471a148.316 148.316 0 0 1 30.866 0l6.428 25.483a7 7 0 0 0 5.208 5.107 117.178 117.178 0 0 1 35.391 14.665 7 7 0 0 0 7.279.064l22.559-13.471a147.3 147.3 0 0 1 21.842 21.829l-13.465 22.548a7 7 0 0 0 .063 7.279 117.986 117.986 0 0 1 14.665 35.4 7 7 0 0 0 5.1 5.194l17.1 4.314-36.427 63.093q-6.648-1.645-13.325-2.932a97.644 97.644 0 1 0 -151.282 31.6 123.831 123.831 0 0 0 -24.438 30.24l-14.051 1.146a148.763 148.763 0 0 1 -12.213-13.287zm61.861-27.029a83.609 83.609 0 1 1 125.57-25.021 219.917 219.917 0 0 0 -57.423-.377c-26.528 3.531-49.457 12.135-68.147 25.398zm-87.6 83.835h11.961v18.4h-11.962zm91.787 93.231a38.1 38.1 0 1 1 38.1-38.1 38.128 38.128 0 0 1 -38.101 38.1zm349.107-36.51q-.039.351-.044.712v.075a37.99 37.99 0 1 1 .081-2.375c.002.533-.016 1.061-.038 1.588zm36.185-5.865-22.349-.262a52.091 52.091 0 0 0 -103.665-1.238l-207.839-2.479a52.077 52.077 0 0 0 -102.632-1.23l-35.628-.434a4.962 4.962 0 0 1 -4.967-4.849v-7.965h18.964a7 7 0 0 0 7-7v-32.4a7 7 0 0 0 -7-7h-18.964v-7.936c0-2.918 2.728-4.658 5.445-4.871l51.421-4.2a7 7 0 0 0 5.592-3.651 109.213 109.213 0 0 1 28.885-34.438 6.908 6.908 0 0 0 1.056-.808c20.977-16.05 45.338-22.8 65.2-25.447 64.012-8.52 141.2 17.634 183.528 62.188a7 7 0 0 0 4.15 2.118l89.917 11.992c20.17 2.687 41.886 16.672 41.886 41.022zm-74.244-20.979a25.244 25.244 0 1 0 25.229 25.257 25.285 25.285 0 0 0 -25.229-25.257zm0 36.483a11.24 11.24 0 1 1 11.226-11.226 11.252 11.252 0 0 1 -11.226 11.225zm-79.088-104.666c-34.442-26.321-82.274-43.608-127.949-46.242-36.329-2.095-68.9 5.015-94.19 20.588a7 7 0 0 0 -3.331 5.962v25.256a7 7 0 0 0 7 7h214.219a7 7 0 0 0 4.251-12.566zm-119.112-1.438h-92.356v-14.262c28.092-15.949 60.275-17.859 82.71-16.562 3.205.185 6.423.472 9.645.808zm14 0v-28.1a232.068 232.068 0 0 1 77.87 28.1z"/></svg>