<?xml version="1.0" encoding="UTF-8" standalone="no"?>
<!-- Created with Inkscape (http://www.inkscape.org/) -->

<svg
   version="1.1"
   id="svg4491"
   xml:space="preserve"
   width="682.66669"
   height="682.66669"
   viewBox="0 0 682.66669 682.66669"
   xmlns="http://www.w3.org/2000/svg"
   xmlns:svg="http://www.w3.org/2000/svg"><defs
     id="defs4495"><clipPath
       clipPathUnits="userSpaceOnUse"
       id="clipPath4505"><path
         d="M 0,512 H 512 V 0 H 0 Z"
         id="path4503" /></clipPath></defs><g
     id="g4497"
     transform="matrix(1.3333333,0,0,-1.3333333,0,682.66667)"><g
       id="g4499"><g
         id="g4501"
         clip-path="url(#clipPath4505)"><g
           id="g4507"
           transform="translate(273.0049,206.9307)"><path
             d="m 0,0 c -9.392,-9.392 -24.618,-9.392 -34.01,0 -9.391,9.392 -9.391,24.618 0,34.01 9.392,9.391 24.618,9.391 34.01,0 C 9.392,24.618 9.392,9.392 0,0 Z"
             style="fill:none;stroke:#000000;stroke-width:15;stroke-linecap:round;stroke-linejoin:round;stroke-miterlimit:10;stroke-dasharray:none;stroke-opacity:1"
             id="path4509" /></g><g
           id="g4511"
           transform="translate(71.6289,223.9355)"><path
             d="M 0,0 H 40.081"
             style="fill:none;stroke:#000000;stroke-width:15;stroke-linecap:round;stroke-linejoin:round;stroke-miterlimit:10;stroke-dasharray:none;stroke-opacity:1"
             id="path4513" /></g><g
           id="g4515"
           transform="translate(400.2905,223.9355)"><path
             d="M 0,0 H 40.081"
             style="fill:none;stroke:#000000;stroke-width:15;stroke-linecap:round;stroke-linejoin:round;stroke-miterlimit:10;stroke-dasharray:none;stroke-opacity:1"
             id="path4517" /></g><g
           id="g4519"
           transform="translate(256,408.3066)"><path
             d="M 0,0 V -40.081"
             style="fill:none;stroke:#000000;stroke-width:15;stroke-linecap:round;stroke-linejoin:round;stroke-miterlimit:10;stroke-dasharray:none;stroke-opacity:1"
             id="path4521" /></g><g
           id="g4523"
           transform="translate(332.1533,355.8369)"><path
             d="M 0,0 16.032,27.769"
             style="fill:none;stroke:#000000;stroke-width:15;stroke-linecap:round;stroke-linejoin:round;stroke-miterlimit:10;stroke-dasharray:none;stroke-opacity:1"
             id="path4525" /></g><g
           id="g4527"
           transform="translate(179.8467,355.8369)"><path
             d="M 0,0 -16.032,27.769"
             style="fill:none;stroke:#000000;stroke-width:15;stroke-linecap:round;stroke-linejoin:round;stroke-miterlimit:10;stroke-dasharray:none;stroke-opacity:1"
             id="path4529" /></g><g
           id="g4531"
           transform="translate(96.3301,316.1211)"><path
             d="M 0,0 27.769,-16.032"
             style="fill:none;stroke:#000000;stroke-width:15;stroke-linecap:round;stroke-linejoin:round;stroke-miterlimit:10;stroke-dasharray:none;stroke-opacity:1"
             id="path4533" /></g><g
           id="g4535"
           transform="translate(387.9014,147.7822)"><path
             d="M 0,0 27.769,-16.032"
             style="fill:none;stroke:#000000;stroke-width:15;stroke-linecap:round;stroke-linejoin:round;stroke-miterlimit:10;stroke-dasharray:none;stroke-opacity:1"
             id="path4537" /></g><g
           id="g4539"
           transform="translate(96.3301,131.75)"><path
             d="M 0,0 27.769,16.032"
             style="fill:none;stroke:#000000;stroke-width:15;stroke-linecap:round;stroke-linejoin:round;stroke-miterlimit:10;stroke-dasharray:none;stroke-opacity:1"
             id="path4541" /></g><g
           id="g4543"
           transform="translate(387.9014,300.0889)"><path
             d="M 0,0 27.769,16.032"
             style="fill:none;stroke:#000000;stroke-width:15;stroke-linecap:round;stroke-linejoin:round;stroke-miterlimit:10;stroke-dasharray:none;stroke-opacity:1"
             id="path4545" /></g><g
           id="g4547"
           transform="translate(77.9111,176.2168)"><path
             d="M 0,0 15.486,4.149"
             style="fill:none;stroke:#000000;stroke-width:15;stroke-linecap:round;stroke-linejoin:round;stroke-miterlimit:10;stroke-dasharray:none;stroke-opacity:1"
             id="path4549" /></g><g
           id="g4551"
           transform="translate(418.6025,267.5049)"><path
             d="M 0,0 15.486,4.149"
             style="fill:none;stroke:#000000;stroke-width:15;stroke-linecap:round;stroke-linejoin:round;stroke-miterlimit:10;stroke-dasharray:none;stroke-opacity:1"
             id="path4553" /></g><g
           id="g4555"
           transform="translate(208.2812,402.0239)"><path
             d="M 0,0 4.149,-15.486"
             style="fill:none;stroke:#000000;stroke-width:15;stroke-linecap:round;stroke-linejoin:round;stroke-miterlimit:10;stroke-dasharray:none;stroke-opacity:1"
             id="path4557" /></g><g
           id="g4559"
           transform="translate(299.5693,386.5381)"><path
             d="M 0,0 4.149,15.486"
             style="fill:none;stroke:#000000;stroke-width:15;stroke-linecap:round;stroke-linejoin:round;stroke-miterlimit:10;stroke-dasharray:none;stroke-opacity:1"
             id="path4561" /></g><g
           id="g4563"
           transform="translate(77.9111,271.6543)"><path
             d="M 0,0 15.486,-4.149"
             style="fill:none;stroke:#000000;stroke-width:15;stroke-linecap:round;stroke-linejoin:round;stroke-miterlimit:10;stroke-dasharray:none;stroke-opacity:1"
             id="path4565" /></g><g
           id="g4567"
           transform="translate(418.6025,180.3662)"><path
             d="M 0,0 15.486,-4.149"
             style="fill:none;stroke:#000000;stroke-width:15;stroke-linecap:round;stroke-linejoin:round;stroke-miterlimit:10;stroke-dasharray:none;stroke-opacity:1"
             id="path4569" /></g><g
           id="g4571"
           transform="translate(136.9663,342.9687)"><path
             d="M 0,0 -11.336,11.337"
             style="fill:none;stroke:#000000;stroke-width:15;stroke-linecap:round;stroke-linejoin:round;stroke-miterlimit:10;stroke-dasharray:none;stroke-opacity:1"
             id="path4573" /></g><g
           id="g4575"
           transform="translate(386.3701,354.3057)"><path
             d="M 0,0 -11.337,-11.337"
             style="fill:none;stroke:#000000;stroke-width:15;stroke-linecap:round;stroke-linejoin:round;stroke-miterlimit:10;stroke-dasharray:none;stroke-opacity:1"
             id="path4577" /></g><g
           id="g4579"
           transform="translate(238.3872,471.8276)"><path
             d="m 0,0 c -125.051,-8.618 -225.283,-111.728 -230.652,-236.96 -2.85,-66.46 20.424,-127.452 60.399,-173.578 12.069,-13.927 29.756,-21.725 48.186,-21.725 h 279.365 c 18.404,0 36.079,7.768 48.136,21.673 37.799,43.593 60.679,100.47 60.679,162.698 C 266.113,-104.823 145.209,10.007 0,0 Z"
             style="fill:none;stroke:#000000;stroke-width:15;stroke-linecap:round;stroke-linejoin:round;stroke-miterlimit:10;stroke-dasharray:none;stroke-opacity:1"
             id="path4581" /></g><g
           id="g4583"
           transform="translate(352.1904,71.6289)"><path
             d="m 0,0 h -235.847 c -9.395,0 -18.331,4.108 -24.46,11.23 -34.132,39.665 -54.142,91.828 -52.188,148.7 1.724,50.178 21.018,96.431 51.912,132.581"
             style="fill:none;stroke:#000000;stroke-width:15;stroke-linecap:round;stroke-linejoin:round;stroke-miterlimit:10;stroke-dasharray:none;stroke-opacity:1"
             id="path4585" /></g><g
           id="g4587"
           transform="translate(115.3354,387.9624)"><path
             d="M 0,0 C 34.641,29.838 78.7,48.994 126.873,51.98 252.655,59.778 357.1,-39.927 357.1,-164.027 c 0,-53.95 -19.752,-103.276 -52.404,-141.175 -6.102,-7.083 -15.021,-11.131 -24.369,-11.131 h -11.405"
             style="fill:none;stroke:#000000;stroke-width:15;stroke-linecap:round;stroke-linejoin:round;stroke-miterlimit:10;stroke-dasharray:none;stroke-opacity:1"
             id="path4589" /></g><g
           id="g4591"
           transform="translate(304.0967,119.7256)"><path
             d="m 0,0 h -96.193 c -4.428,0 -8.016,3.589 -8.016,8.016 v 16.033 c 0,4.427 3.588,8.016 8.016,8.016 H 0 c 4.427,0 8.016,-3.589 8.016,-8.016 V 8.016 C 8.016,3.589 4.427,0 0,0 Z"
             style="fill:none;stroke:#000000;stroke-width:15;stroke-linecap:round;stroke-linejoin:round;stroke-miterlimit:10;stroke-dasharray:none;stroke-opacity:1"
             id="path4593" /></g><g
           id="g4595"
           transform="translate(274.2031,242.1387)"><path
             d="M 0,0 73.982,73.982"
             style="fill:none;stroke:#000000;stroke-width:15;stroke-linecap:round;stroke-linejoin:round;stroke-miterlimit:10;stroke-dasharray:none;stroke-opacity:1"
             id="path4597" /></g><g
           id="g4599"
           transform="translate(223.9355,191.8711)"><path
             d="M 0,0 15.06,15.06"
             style="fill:none;stroke:#000000;stroke-width:15;stroke-linecap:round;stroke-linejoin:round;stroke-miterlimit:10;stroke-dasharray:none;stroke-opacity:1"
             id="path4601" /></g></g></g></g></svg>
