<?xml version="1.0" encoding="UTF-8"?>
<svg xmlns="http://www.w3.org/2000/svg" viewBox="0 0 64 64" width="512" height="512"><g id="_29-Art" data-name="29-Art"><path d="M14,32a5,5,0,1,0,5,5A5.00588,5.00588,0,0,0,14,32Zm0,8a3,3,0,1,1,3-3A3.00328,3.00328,0,0,1,14,40Zm9,3a5,5,0,1,0,5,5A5.00588,5.00588,0,0,0,23,43Zm0,8a3,3,0,1,1,3-3A3.00328,3.00328,0,0,1,23,51ZM17,28a5,5,0,1,0-5-5A5.00588,5.00588,0,0,0,17,28Zm0-8a3,3,0,1,1-3,3A3.00328,3.00328,0,0,1,17,20Zm13,1a5,5,0,1,0-5-5A5.00588,5.00588,0,0,0,30,21Zm0-8a3,3,0,1,1-3,3A3.00328,3.00328,0,0,1,30,13ZM61.36328,4.63672c-2.56482-2.56482-10.21319,3.36438-14.90564,7.774A26.99758,26.99758,0,1,0,29,60c2.85156,0,5.09082-.97852,6.14551-2.68555.66308-1.07226,1.1582-2.94336-.251-5.76172a6.29655,6.29655,0,0,1-.05176-5.96093C35.89062,43.89648,38.01953,43,41,43c7.417,0,15-1.18848,15-10a27.00269,27.00269,0,0,0-3.17145-12.66229C57.27161,15.76764,64.07928,7.35461,61.36328,4.63672ZM59.94922,6.05078c.626.67481-1.72168,6.07031-9.11914,13.4668a62.85729,62.85729,0,0,1-5.7077,5.07153,12.11179,12.11179,0,0,0-3.71149-3.71149,62.85729,62.85729,0,0,1,5.07153-5.7077C53.87988,7.77246,59.27637,5.42676,59.94922,6.05078Zm-21.8241,19.8371a25.742,25.742,0,0,1,2.08881-3.407,10.117,10.117,0,0,1,3.30517,3.30517,25.742,25.742,0,0,1-3.407,2.08881A6.034,6.034,0,0,0,38.12512,25.88788ZM39,31c0,2.36523-2.46387,5-6,5a8.602,8.602,0,0,1-5.92383-2.02344c2.11621-.458,3.06836-2.24609,3.87012-3.751C32.01172,28.22559,32.77734,27,35,27A4.004,4.004,0,0,1,39,31Zm2,10c-4.68652,0-6.86035,1.9248-7.8584,3.54a8.21137,8.21137,0,0,0-.03613,7.90723c.80078,1.60058.915,2.88476.33887,3.8164C32.77246,57.35059,31.11133,58,29,58A25,25,0,1,1,45.00085,13.82556c-4.05059,4.06049-7.23132,8.19788-8.733,11.31207A5.99555,5.99555,0,0,0,35,25c-3.53711,0-4.80176,2.376-5.81836,4.28516-1.09277,2.05175-1.76758,3.10156-4.01758,2.72851a1,1,0,0,0-1.05859,1.4336C24.19824,33.63281,26.457,38,33,38c4.78516,0,8-3.61914,8-7a5.99555,5.99555,0,0,0-.13763-1.26782A44.957,44.957,0,0,0,51.3421,21.8056,24.99812,24.99812,0,0,1,54,33C54,38.75684,50.35547,41,41,41Z"/></g></svg>
