<?xml version="1.0" encoding="UTF-8" standalone="no"?>
<!-- Created with Inkscape (http://www.inkscape.org/) -->

<svg
   version="1.1"
   id="svg9"
   xml:space="preserve"
   width="682.66669"
   height="682.66669"
   viewBox="0 0 682.66669 682.66669"
   xmlns="http://www.w3.org/2000/svg"
   xmlns:svg="http://www.w3.org/2000/svg"><defs
     id="defs13"><clipPath
       clipPathUnits="userSpaceOnUse"
       id="clipPath27"><path
         d="M 0,512 H 512 V 0 H 0 Z"
         id="path25" /></clipPath></defs><g
     id="g15"
     transform="matrix(1.3333333,0,0,-1.3333333,0,682.66667)"><g
       id="g17"
       transform="translate(234.4678,350.3767)"><path
         d="m 0,0 -109.729,-109.729 -58.783,58.784 109.729,109.728 z"
         style="fill:none;stroke:#000000;stroke-width:15;stroke-linecap:round;stroke-linejoin:round;stroke-miterlimit:10;stroke-dasharray:none;stroke-opacity:1"
         id="path19" /></g><g
       id="g21"><g
         id="g23"
         clip-path="url(#clipPath27)"><g
           id="g29"
           transform="translate(91.6201,444.7612)"><path
             d="m 0,0 14.2,14.2 c 10.33,10.33 26.65,11.56 38.4,2.89 l 48.44,-35.71 -143.68,-143.69 -35.72,48.44 c -8.66,11.76 -7.44,28.08 2.89,38.41 l 54.26,54.26"
             style="fill:none;stroke:#000000;stroke-width:15;stroke-linecap:round;stroke-linejoin:round;stroke-miterlimit:10;stroke-dasharray:none;stroke-opacity:1"
             id="path31" /></g><g
           id="g33"
           transform="translate(135.0088,295.04)"><path
             d="M 0,0 V 0 C -5.681,-5.681 -14.893,-5.681 -20.574,0 L -47.009,26.435 -26.435,47.009 0,20.574 C 5.682,14.893 5.682,5.681 0,0 Z"
             style="fill:none;stroke:#000000;stroke-width:15;stroke-linecap:round;stroke-linejoin:round;stroke-miterlimit:10;stroke-dasharray:none;stroke-opacity:1"
             id="path35" /></g><g
           id="g37"
           transform="translate(180.0762,340.1072)"><path
             d="M 0,0 V 0 C -5.682,-5.681 -14.893,-5.681 -20.574,0 L -47.009,26.435 -26.435,47.009 0,20.574 C 5.681,14.893 5.681,5.681 0,0 Z"
             style="fill:none;stroke:#000000;stroke-width:15;stroke-linecap:round;stroke-linejoin:round;stroke-miterlimit:10;stroke-dasharray:none;stroke-opacity:1"
             id="path39" /></g><g
           id="g41"
           transform="translate(30.3203,307.761)"><path
             d="M 0,0 137.035,137.035"
             style="fill:none;stroke:#000000;stroke-width:15;stroke-linecap:round;stroke-linejoin:round;stroke-miterlimit:10;stroke-dasharray:none;stroke-opacity:1"
             id="path43" /></g><g
           id="g45"
           transform="translate(277.5337,350.3767)"><path
             d="M 0,0 109.729,-109.729 168.511,-50.945 58.783,58.783 Z"
             style="fill:none;stroke:#000000;stroke-width:15;stroke-linecap:round;stroke-linejoin:round;stroke-miterlimit:10;stroke-dasharray:none;stroke-opacity:1"
             id="path47" /></g><g
           id="g49"
           transform="translate(319.3398,426.1365)"><path
             d="m 0,0 143.682,-143.682 35.716,48.439 c 8.666,11.753 7.439,28.077 -2.887,38.403 L 86.842,32.829 C 76.516,43.156 60.192,44.382 48.438,35.716 Z"
             style="fill:none;stroke:#000000;stroke-width:15;stroke-linecap:round;stroke-linejoin:round;stroke-miterlimit:10;stroke-dasharray:none;stroke-opacity:1"
             id="path51" /></g><g
           id="g53"
           transform="translate(376.9927,295.04)"><path
             d="M 0,0 V 0 C 5.681,-5.681 14.893,-5.681 20.574,0 L 47.009,26.435 26.435,47.009 0,20.574 C -5.682,14.893 -5.682,5.681 0,0 Z"
             style="fill:none;stroke:#000000;stroke-width:15;stroke-linecap:round;stroke-linejoin:round;stroke-miterlimit:10;stroke-dasharray:none;stroke-opacity:1"
             id="path55" /></g><g
           id="g57"
           transform="translate(331.9253,340.1072)"><path
             d="M 0,0 V 0 C 5.682,-5.681 14.893,-5.681 20.574,0 L 47.009,26.435 26.435,47.009 0,20.574 C -5.681,14.893 -5.681,5.681 0,0 Z"
             style="fill:none;stroke:#000000;stroke-width:15;stroke-linecap:round;stroke-linejoin:round;stroke-miterlimit:10;stroke-dasharray:none;stroke-opacity:1"
             id="path59" /></g><g
           id="g61"
           transform="translate(481.6812,307.761)"><path
             d="M 0,0 -137.035,137.035"
             style="fill:none;stroke:#000000;stroke-width:15;stroke-linecap:round;stroke-linejoin:round;stroke-miterlimit:10;stroke-dasharray:none;stroke-opacity:1"
             id="path63" /></g><g
           id="g65"
           transform="translate(140.8662,190.5959)"><path
             d="M 0,0 -16.125,50.055"
             style="fill:none;stroke:#000000;stroke-width:15;stroke-linecap:round;stroke-linejoin:round;stroke-miterlimit:10;stroke-dasharray:none;stroke-opacity:1"
             id="path67" /></g><g
           id="g69"
           transform="translate(387.2583,240.6511)"><path
             d="M 0,0 -9.719,-30.187"
             style="fill:none;stroke:#000000;stroke-width:15;stroke-linecap:round;stroke-linejoin:round;stroke-miterlimit:10;stroke-dasharray:none;stroke-opacity:1"
             id="path71" /></g><g
           id="g73"
           transform="translate(228.2949,125.1567)"><path
             d="M 0,0 H 27.705 121.77"
             style="fill:none;stroke:#000000;stroke-width:15;stroke-linecap:round;stroke-linejoin:round;stroke-miterlimit:10;stroke-dasharray:none;stroke-opacity:1"
             id="path75" /></g><g
           id="g77"
           transform="translate(234.4678,350.3767)"><path
             d="M 0,0 H 43.066"
             style="fill:none;stroke:#000000;stroke-width:15;stroke-linecap:round;stroke-linejoin:round;stroke-miterlimit:10;stroke-dasharray:none;stroke-opacity:1"
             id="path79" /></g><g
           id="g81"
           transform="translate(85.9902,279.4099)"><path
             d="m 0,0 c -19.92,-13.77 -32.99,-36.76 -32.99,-62.75 0,-38.82 29.18,-70.96 66.76,-75.65 M 21.82,-21.82 C 7.09,-29.56 -2.97,-44.99 -2.97,-62.75 c 0,-24.04 18.47,-43.86 41.97,-46.01"
             style="fill:none;stroke:#000000;stroke-width:15;stroke-linecap:round;stroke-linejoin:round;stroke-miterlimit:10;stroke-dasharray:none;stroke-opacity:1"
             id="path83" /></g><g
           id="g85"
           transform="translate(425.6499,153.6614)"><path
             d="M 0,0 C -11.7,-7.99 -25.74,-12.81 -40.85,-13.21 M 0.36,125.74 C 20.28,111.98 33.35,88.99 33.35,63 33.35,47.62 28.77,33.29 20.9,21.3 m -42.356,82.625 C -6.733,96.188 3.326,80.754 3.326,62.998 3.326,42.54 -10.046,25.134 -28.522,19.088"
             style="fill:none;stroke:#000000;stroke-width:15;stroke-linecap:round;stroke-linejoin:round;stroke-miterlimit:10;stroke-dasharray:none;stroke-opacity:1"
             id="path87" /></g><g
           id="g89"
           transform="translate(191.6118,92.127)"><path
             d="m 0,0 v -32.9 c 0,-8.197 -6.646,-14.843 -14.843,-14.843 -8.188,0 -14.834,6.646 -14.834,14.843 v 32.46"
             style="fill:none;stroke:#000000;stroke-width:15;stroke-linecap:round;stroke-linejoin:round;stroke-miterlimit:10;stroke-dasharray:none;stroke-opacity:1"
             id="path91" /></g><g
           id="g93"
           transform="translate(228.2949,125.1567)"><path
             d="m 0,0 h 16.135 v -65.929 c 0,-8.198 -6.646,-14.844 -14.844,-14.844 -8.187,0 -14.833,6.646 -14.833,14.844 v 46.131"
             style="fill:none;stroke:#000000;stroke-width:15;stroke-linecap:round;stroke-linejoin:round;stroke-miterlimit:10;stroke-dasharray:none;stroke-opacity:1"
             id="path95" /></g><g
           id="g97"
           transform="translate(282.4106,44.3877)"><path
             d="M 0,0 V 0 C -8.195,0 -14.838,6.643 -14.838,14.838 V 80.773 H 14.837 V 14.838 C 14.837,6.643 8.194,0 0,0 Z"
             style="fill:none;stroke:#000000;stroke-width:15;stroke-linecap:round;stroke-linejoin:round;stroke-miterlimit:10;stroke-dasharray:none;stroke-opacity:1"
             id="path99" /></g><g
           id="g101"
           transform="translate(335.23,44.3877)"><path
             d="M 0,0 V 0 C -8.194,0 -14.837,6.643 -14.837,14.838 V 80.773 H 14.838 V 14.838 C 14.838,6.643 8.195,0 0,0 Z"
             style="fill:none;stroke:#000000;stroke-width:15;stroke-linecap:round;stroke-linejoin:round;stroke-miterlimit:10;stroke-dasharray:none;stroke-opacity:1"
             id="path103" /></g><g
           id="g105"
           transform="translate(320.3882,59.2273)"><path
             d="M 0,0 H -23.141"
             style="fill:none;stroke:#000000;stroke-width:15;stroke-linecap:round;stroke-linejoin:round;stroke-miterlimit:10;stroke-dasharray:none;stroke-opacity:1"
             id="path107" /></g><g
           id="g109"
           transform="translate(214.7529,59.2273)"><path
             d="M 0,0 H -23.141"
             style="fill:none;stroke:#000000;stroke-width:15;stroke-linecap:round;stroke-linejoin:round;stroke-miterlimit:10;stroke-dasharray:none;stroke-opacity:1"
             id="path111" /></g><g
           id="g113"
           transform="translate(267.5703,59.2273)"><path
             d="M 0,0 H -23.141"
             style="fill:none;stroke:#000000;stroke-width:15;stroke-linecap:round;stroke-linejoin:round;stroke-miterlimit:10;stroke-dasharray:none;stroke-opacity:1"
             id="path115" /></g><g
           id="g117"
           transform="translate(290.9492,254.1135)"><path
             d="M 0,0 C 0,19.301 -15.647,34.948 -34.949,34.948 -54.25,34.948 -69.897,19.301 -69.897,0 c 0,-19.302 15.647,-34.948 34.948,-34.948 C -15.647,-34.948 0,-19.302 0,0 Z"
             style="fill:none;stroke:#000000;stroke-width:15;stroke-linecap:round;stroke-linejoin:round;stroke-miterlimit:10;stroke-dasharray:none;stroke-opacity:1"
             id="path119" /></g><g
           id="g121"
           transform="translate(397.1421,172.2354)"><path
             d="m 0,0 c 0,25.999 -21.076,47.074 -47.074,47.074 -25.999,0 -47.074,-21.075 -47.074,-47.074 0,-25.998 21.075,-47.074 47.074,-47.074 C -21.076,-47.074 0,-25.998 0,0 Z"
             style="fill:none;stroke:#000000;stroke-width:15;stroke-linecap:round;stroke-linejoin:round;stroke-miterlimit:10;stroke-dasharray:none;stroke-opacity:1"
             id="path123" /></g><g
           id="g125"
           transform="translate(232.4209,146.3806)"><path
             d="m 0,0 c 0,31.178 -25.275,56.453 -56.453,56.453 -31.178,0 -56.453,-25.275 -56.453,-56.453 0,-31.178 25.275,-56.453 56.453,-56.453 C -25.275,-56.453 0,-31.178 0,0 Z"
             style="fill:none;stroke:#000000;stroke-width:15;stroke-linecap:round;stroke-linejoin:round;stroke-miterlimit:10;stroke-dasharray:none;stroke-opacity:1"
             id="path127" /></g><g
           id="g129"
           transform="translate(191.105,146.3806)"><path
             d="m 0,0 c 0,8.36 -6.777,15.137 -15.137,15.137 -8.36,0 -15.137,-6.777 -15.137,-15.137 0,-8.36 6.777,-15.137 15.137,-15.137 C -6.777,-15.137 0,-8.36 0,0 Z"
             style="fill:none;stroke:#000000;stroke-width:15;stroke-linecap:round;stroke-linejoin:round;stroke-miterlimit:10;stroke-dasharray:none;stroke-opacity:1"
             id="path131" /></g><g
           id="g133"
           transform="translate(365.2046,172.2354)"><path
             d="m 0,0 c 0,8.36 -6.777,15.137 -15.137,15.137 -8.36,0 -15.137,-6.777 -15.137,-15.137 0,-8.36 6.777,-15.137 15.137,-15.137 C -6.777,-15.137 0,-8.36 0,0 Z"
             style="fill:none;stroke:#000000;stroke-width:15;stroke-linecap:round;stroke-linejoin:round;stroke-miterlimit:10;stroke-dasharray:none;stroke-opacity:1"
             id="path135" /></g><g
           id="g137"
           transform="translate(131.6826,181.3918)"><path
             d="M 0,0 100.874,98.638"
             style="fill:none;stroke:#000000;stroke-width:15;stroke-linecap:round;stroke-linejoin:round;stroke-miterlimit:10;stroke-dasharray:none;stroke-opacity:1"
             id="path139" /></g><g
           id="g141"
           transform="translate(279.8672,279.6348)"><path
             d="M 0,0 89.496,-64.464"
             style="fill:none;stroke:#000000;stroke-width:15;stroke-linecap:round;stroke-linejoin:round;stroke-miterlimit:10;stroke-dasharray:none;stroke-opacity:1"
             id="path143" /></g><g
           id="g145"
           transform="translate(214.7529,105.3589)"><path
             d="M 0,0 94.65,90.6"
             style="fill:none;stroke:#000000;stroke-width:15;stroke-linecap:round;stroke-linejoin:round;stroke-miterlimit:10;stroke-dasharray:none;stroke-opacity:1"
             id="path147" /></g></g></g></g></svg>
