<svg id="Layer_3" height="512" viewBox="0 0 64 64" width="512" xmlns="http://www.w3.org/2000/svg" data-name="Layer 3"><path d="m26.934 62.588c.66.109 1.336.2 2.01.263l.2-1.99q-.949-.093-1.879-.247z"/><path d="m5.563 20.062-1.822-.825c-.278.614-.538 1.244-.775 1.876l1.873.7q.335-.889.724-1.751z"/><path d="m9.557 13.632-1.547-1.267q-.64.783-1.233 1.608l1.623 1.165q.557-.771 1.157-1.506z"/><path d="m7.35 16.715-1.7-1.054q-.534.86-1.013 1.756l1.764.942q.449-.838.949-1.644z"/><path d="m12.145 10.863-1.369-1.463c-.489.459-.971.942-1.431 1.435l1.462 1.365q.646-.688 1.338-1.337z"/><path d="m25.351 3.766-.458-1.947q-.992.234-1.957.528l.583 1.913q.905-.276 1.832-.494z"/><path d="m3.378 27.305-1.978-.321q-.162.994-.26 2.01l1.991.191q.096-.949.247-1.88z"/><path d="m29.087 3.144-.2-1.99q-1.014.1-2.008.267l.327 1.973q.931-.155 1.881-.25z"/><path d="m18.281 6.443-.947-1.761q-.892.479-1.751 1.016l1.06 1.7q.803-.505 1.638-.955z"/><path d="m15.07 8.452-1.17-1.623q-.822.593-1.6 1.237l1.272 1.543q.728-.601 1.498-1.157z"/><path d="m21.726 4.873-.709-1.873q-.949.36-1.869.78l.831 1.82q.858-.39 1.747-.727z"/><path d="m4.231 23.613-1.915-.577q-.291.964-.516 1.964l1.948.451q.21-.933.483-1.838z"/><path d="m15.618 58.323q.859.535 1.756 1.016l.944-1.763q-.837-.449-1.641-.951z"/><path d="m3 32q0-.464.015-.922l-2-.064q-.015.486-.015.986c0 .349 0 .7.017 1.042l2-.067c-.012-.324-.017-.648-.017-.975z"/><path d="m9.371 53.188q.693.739 1.432 1.433l1.368-1.459q-.691-.649-1.341-1.342z"/><path d="m19.192 60.239c.611.278 1.242.539 1.874.778l.705-1.871q-.889-.336-1.752-.728z"/><path d="m22.988 61.669q.966.293 1.958.524l.453-1.948q-.927-.215-1.831-.49z"/><path d="m12.327 55.959q.783.643 1.607 1.236l1.166-1.625q-.771-.553-1.5-1.156z"/><path d="m3.139 34.866-1.99.2q.1 1.014.264 2.009l1.973-.324q-.153-.935-.247-1.885z"/><path d="m3.755 38.6-1.947.456q.231.991.524 1.957l1.914-.58q-.275-.9-.491-1.833z"/><path d="m8.424 48.893-1.624 1.167q.593.822 1.234 1.606l1.546-1.266q-.601-.736-1.156-1.507z"/><path d="m4.856 42.231-1.871.707q.359.948.776 1.869l1.821-.827q-.391-.86-.726-1.749z"/><path d="m6.422 45.679-1.763.943c.316.591.657 1.181 1.014 1.754l1.7-1.059q-.503-.801-.951-1.638z"/><path d="m54.8 11h2.2v-2h-5a1 1 0 0 0 -1 1v5h2v-2.988a28.991 28.991 0 0 1 -21 48.988v2a30.995 30.995 0 0 0 22.8-52z"/><path d="m7 32a25 25 0 1 0 25-25 25.028 25.028 0 0 0 -25 25zm25-23a23 23 0 1 1 -23 23 23.026 23.026 0 0 1 23-23z"/><path d="m32 53a21 21 0 1 0 -21-21 21.023 21.023 0 0 0 21 21zm0-40a19 19 0 1 1 -19 19 19.021 19.021 0 0 1 19-19z"/><path d="m18 30v-.5a1.5 1.5 0 0 1 3 0 3.148 3.148 0 0 1 -.729 2.012l-4.039 4.848a1 1 0 0 0 .768 1.64h6v-2h-3.865l2.673-3.208a5.148 5.148 0 0 0 1.192-3.292 3.5 3.5 0 0 0 -7 0v.5z"/><path d="m25 36h4v2h2v-2h2v-2h-2v-7a1 1 0 0 0 -1.848-.53l-5 8a1 1 0 0 0 .848 1.53zm4-5.513v3.513h-2.2z"/><path d="m30.315 31h12.369v2h-12.369z" transform="matrix(.243 -.97 .97 .243 -3.4 59.644)"/><path d="m42 28h3.313a22.051 22.051 0 0 0 -2.313 9.831v.169h2v-.169a20.057 20.057 0 0 1 2.857-10.316 1 1 0 0 0 -.857-1.515h-6a1 1 0 0 0 -1 1v2h2z"/></svg>