<svg xmlns="http://www.w3.org/2000/svg" version="1.1" xmlns:xlink="http://www.w3.org/1999/xlink" x="0" y="0" viewBox="0 0 512 512" style="enable-background:new 0 0 512 512" xml:space="preserve" class=""><circle r="256" cx="256" cy="256" fill="#ff4b1a" shape="circle"></circle><g transform="matrix(0.7,0,0,0.7,76.80000000000001,76.80000000000001)"><path d="M256 65.92C151.19 65.92 65.92 151.19 65.92 256S151.19 446.08 256 446.08 446.08 360.81 446.08 256 360.81 65.92 256 65.92zM429.95 294.2c-17.2-.52-32.66.49-46.45 3.04 4.29-13.26 6.48-27.09 6.48-41.24 0-15.55-2.61-30.64-7.76-45.03 16.61 4.79 33.18 10.52 49.69 17.18 1.43 9.08 2.18 18.38 2.18 27.85-.01 13.11-1.44 25.89-4.14 38.2zm-129.84 75.55c-14.05 5.45-28.87 8.22-44.11 8.22s-30.06-2.77-44.11-8.22c-3.97-12.51-9.36-24.1-16.95-34.34-12.43-16.76-29.82-28.35-52.54-34.91-5.56-14.16-8.37-29.12-8.37-44.5 0-17.03 3.43-33.45 10.19-48.87 26.95-6.92 53.92-11.37 80.72-13.29l-15.19 66.39a6.003 6.003 0 0 0 5.85 7.34h29.71l-11.62 83.88a5.994 5.994 0 0 0 4.27 6.58c.56.16 1.12.24 1.68.24 2.29 0 4.46-1.33 5.45-3.5l56.78-124.02c.85-1.86.7-4.02-.41-5.74a6 6 0 0 0-5.05-2.76h-29.07l6.68-29.18c31.1 1.28 62.44 5.96 93.72 13.96 6.79 15.45 10.23 31.9 10.23 48.97 0 15.39-2.82 30.34-8.37 44.5-22.72 6.56-40.12 18.14-52.54 34.91-7.59 10.24-12.98 21.83-16.95 34.34zM77.92 256c0-9.43.74-18.69 2.16-27.72a514.73 514.73 0 0 1 49.67-17.2c-5.12 14.36-7.72 29.41-7.72 44.92 0 14.15 2.18 27.98 6.48 41.24-13.79-2.56-29.25-3.57-46.45-3.04a177.502 177.502 0 0 1-4.14-38.2zm177.2-24.01a6.003 6.003 0 0 0 4.69 2.26h27.25l-35.89 78.39 6.96-50.25c.24-1.72-.28-3.46-1.42-4.76a5.994 5.994 0 0 0-4.52-2.06h-29.07l20.56-89.84h24.28l-14 61.18c-.4 1.78.02 3.65 1.16 5.08zM256 77.92c83.79 0 154.23 58.17 173.11 136.23-50.55-19.55-101.73-30.62-152.37-32.96l4.6-20.12a6.003 6.003 0 0 0-5.85-7.34H238.9a6 6 0 0 0-5.85 4.66l-5.32 23.24c-48.13 3.06-96.8 14.03-144.87 32.66C101.69 136.15 172.17 77.92 256 77.92zM85.11 306.13c48.46-1.01 81.3 10.94 100.19 36.43 16.52 22.29 21.71 52.97 25.12 85.61-60.1-15.93-107.84-62.57-125.31-122.04zm137.66 124.83c-1.63-16.3-3.61-32.23-7.06-47.16 12.98 4.09 26.48 6.17 40.29 6.17s27.31-2.08 40.29-6.17c-3.45 14.94-5.43 30.86-7.06 47.16a178.365 178.365 0 0 1-33.23 3.12c-11.35 0-22.46-1.08-33.23-3.12zm78.8-2.8c3.41-32.63 8.6-63.31 25.12-85.61 18.89-25.49 51.72-37.43 100.19-36.43-17.46 59.48-65.2 106.12-125.31 122.04zM256 15C123.11 15 15 123.11 15 256s108.11 241 241 241 241-108.11 241-241S388.89 15 256 15zm0 470C129.73 485 27 382.27 27 256S129.73 27 256 27s229 102.73 229 229-102.73 229-229 229z" fill="#ffffff" opacity="1" data-original="#000000"></path></g></svg>