<svg xmlns="http://www.w3.org/2000/svg" version="1.1" xmlns:xlink="http://www.w3.org/1999/xlink" x="0" y="0" viewBox="0 0 64 64" style="enable-background:new 0 0 512 512" xml:space="preserve" class=""><circle r="32" cx="32" cy="32" fill="#ff4b1a" shape="circle"></circle><g transform="matrix(0.7,0,0,0.7,9.591491389274598,9.600032615661622)"><path d="M12.201 52.799a1.007 1.007 0 0 0 .707-1.707c-10.474-10.05-10.474-28.134 0-38.184a1 1 0 0 0-1.414-1.414 28.999 28.999 0 0 0 0 41.012.997.997 0 0 0 .707.293zM51.092 11.494a1 1 0 0 0 0 1.414c10.474 10.05 10.474 28.134 0 38.184a1 1 0 0 0 1.414 1.414c11.25-10.794 11.25-30.218 0-41.012a1 1 0 0 0-1.414 0z" fill="#ffffff" opacity="1" data-original="#000000"></path><path d="M17.15 17.15a1 1 0 0 0-1.413-1.413c-8.923 8.56-8.923 23.966 0 32.526a1 1 0 0 0 1.414-1.414c-8.147-7.816-8.147-21.882 0-29.698zM47.556 48.556a.997.997 0 0 0 .707-.293c8.923-8.56 8.923-23.966 0-32.526a1 1 0 0 0-1.414 1.414c8.147 7.817 8.147 21.882 0 29.698a1.007 1.007 0 0 0 .707 1.707z" fill="#ffffff" opacity="1" data-original="#000000"></path><path d="M20.686 44.313a1.007 1.007 0 0 0 .707-1.707 15.07 15.07 0 0 1 0-21.212 1 1 0 0 0-1.414-1.414 17.079 17.079 0 0 0 0 24.041.996.996 0 0 0 .707.292zM43.313 44.313a.997.997 0 0 0 .707-.293 17.079 17.079 0 0 0 0-24.04 1 1 0 0 0-1.413 1.414 15.07 15.07 0 0 1 0 21.212 1.007 1.007 0 0 0 .706 1.707z" fill="#ffffff" opacity="1" data-original="#000000"></path><path d="M24.929 40.071a1.007 1.007 0 0 0 .707-1.707 9.012 9.012 0 0 1 0-12.728 1 1 0 0 0-1.414-1.414 11.013 11.013 0 0 0 0 15.556.997.997 0 0 0 .707.293zM39.778 24.222a1 1 0 0 0-1.414 1.414 9.012 9.012 0 0 1 0 12.728 1 1 0 1 0 1.414 1.414 11.013 11.013 0 0 0 0-15.556zM37 32c-.21-6.608-9.79-6.606-10 0 .21 6.608 9.79 6.606 10 0zm-8 0a3 3 0 0 1 6 0 3 3 0 0 1-6 0z" fill="#ffffff" opacity="1" data-original="#000000"></path></g></svg>