<svg xmlns="http://www.w3.org/2000/svg" version="1.1" xmlns:xlink="http://www.w3.org/1999/xlink" x="0" y="0" viewBox="0 0 64 64" style="enable-background:new 0 0 512 512" xml:space="preserve" class=""><circle r="32" cx="32" cy="32" fill="#ff4b1a" shape="circle"></circle><g transform="matrix(0.7,0,0,0.7,9.600000000000001,9.600000000000001)"><path d="M32 8C18.767 8 8 18.767 8 32s10.767 24 24 24 24-10.767 24-24S45.233 8 32 8zm0 46c-12.131 0-22-9.869-22-22s9.869-22 22-22 22 9.869 22 22-9.869 22-22 22z" fill="#ffffff" opacity="1" data-original="#000000"></path><path d="M32 12c-11.028 0-20 8.972-20 20s8.972 20 20 20 20-8.972 20-20-8.972-20-20-20zm0 38c-9.925 0-18-8.075-18-18s8.075-18 18-18 18 8.075 18 18-8.075 18-18 18z" fill="#ffffff" opacity="1" data-original="#000000"></path><path d="M64 32C64 14.354 49.645 0 32 0S0 14.354 0 32c0 17.645 14.355 32 32 32s32-14.355 32-32zM47.851 57.454l-.984-1.706a1 1 0 1 0-1.732 1l.988 1.711A29.81 29.81 0 0 1 33 61.975V60a1 1 0 0 0-2 0v1.975a29.789 29.789 0 0 1-13.122-3.516l.987-1.71a1 1 0 0 0-1.732-1l-.984 1.705a30.223 30.223 0 0 1-9.603-9.603l1.704-.984a1 1 0 1 0-1-1.732l-1.709.987A29.792 29.792 0 0 1 2.025 33h1.974a1 1 0 0 0 0-2H2.025a29.78 29.78 0 0 1 3.516-13.121l1.71.987a.998.998 0 0 0 1.366-.366 1 1 0 0 0-.366-1.366l-1.705-.984a30.223 30.223 0 0 1 9.603-9.603l.984 1.705a1 1 0 1 0 1.732-1l-.987-1.71A29.79 29.79 0 0 1 31 2.025V4a1 1 0 0 0 2 0V2.025A29.793 29.793 0 0 1 46.121 5.54l-.988 1.71a1 1 0 1 0 1.732 1l.985-1.705a30.236 30.236 0 0 1 9.604 9.603l-1.706.984a1 1 0 0 0 1 1.732l1.711-.987a29.812 29.812 0 0 1 3.516 13.122H60a1 1 0 0 0 0 2h1.975a29.801 29.801 0 0 1-3.515 13.122l-1.71-.988a1 1 0 0 0-1 1.732l1.705.985a30.24 30.24 0 0 1-9.604 9.604z" fill="#ffffff" opacity="1" data-original="#000000"></path></g></svg>