<svg xmlns="http://www.w3.org/2000/svg" version="1.1" xmlns:xlink="http://www.w3.org/1999/xlink" x="0" y="0" viewBox="0 0 64 64" style="enable-background:new 0 0 512 512" xml:space="preserve" class=""><circle r="32" cx="32" cy="32" fill="#ff4b1a" shape="circle"></circle><g transform="matrix(0.7,0,0,0.7,9.60002145767212,9.602437877655031)"><path d="M9.315 5.458a.7.7 0 0 0-.045-.074.958.958 0 0 0-.094-.152.911.911 0 0 0-.14-.162c-.018-.017-.027-.04-.047-.056s-.066-.029-.1-.049a.973.973 0 0 0-.177-.088.96.96 0 0 0-.2-.048 1.039 1.039 0 0 0-.168-.012.95.95 0 0 0-.223.035c-.032.008-.064 0-.095.014S8 4.892 7.974 4.9a1.013 1.013 0 0 0-.193.119.964.964 0 0 0-.128.11c-.021.022-.048.034-.068.058a8.724 8.724 0 0 0 5.176 13.933l.039.006 2.488 6.73h-.1a7.167 7.167 0 0 0-7.16 7.159v21.826A7.167 7.167 0 0 0 15.184 62h33.632a7.167 7.167 0 0 0 7.16-7.159V33.015a7.167 7.167 0 0 0-7.16-7.159h-.1l2.488-6.73.066-.011a8.724 8.724 0 0 0 5.145-13.927c-.02-.025-.048-.036-.069-.059a1.011 1.011 0 0 0-.125-.108.985.985 0 0 0-.2-.121c-.02-.009-.034-.026-.055-.034s-.062-.006-.094-.015a1.029 1.029 0 0 0-.221-.035.942.942 0 0 0-.176.013.927.927 0 0 0-.187.045.98.98 0 0 0-.186.093c-.03.019-.065.025-.094.047s-.028.038-.046.054a1.265 1.265 0 0 0-.235.316.766.766 0 0 0-.045.074l-1.982 5.37L47 8.72l1.986-5.37A.718.718 0 0 0 49 3.271a.947.947 0 0 0 .03-.193.945.945 0 0 0 0-.2V2.8a.975.975 0 0 0-.045-.1.884.884 0 0 0-.076-.179.936.936 0 0 0-.116-.162.9.9 0 0 0-.313-.238.888.888 0 0 0-.083-.052c-.022-.008-.044 0-.066-.01a.987.987 0 0 0-.231-.039.943.943 0 0 0-.168 0 .861.861 0 0 0-.088 0 8.725 8.725 0 0 0-5.133 13.948l.019.023-3.64 9.865H24.91l-3.644-9.866.037-.043a8.726 8.726 0 0 0-5.15-13.927.861.861 0 0 0-.088 0 1.035 1.035 0 0 0-.167 0 .979.979 0 0 0-.224.035c-.022.006-.045 0-.067.01a.9.9 0 0 0-.084.052.973.973 0 0 0-.187.116.9.9 0 0 0-.125.122.936.936 0 0 0-.116.162.884.884 0 0 0-.076.179.975.975 0 0 0-.045.1c-.005.026 0 .051 0 .078a.945.945 0 0 0 0 .2.947.947 0 0 0 .03.193.718.718 0 0 0 .012.079L17 8.72l-5.7 2.108zM48.816 60H15.184a5.165 5.165 0 0 1-5.16-5.159V40.583H27v1.594a5 5 0 0 0 10 0v-1.594h16.976v14.258A5.165 5.165 0 0 1 48.816 60zM29 42.177v-5.785h6v5.785a3 3 0 0 1-6 0zm24.976-9.162v5.568H37v-3.191a1 1 0 0 0-1-1h-8a1 1 0 0 0-1 1v3.191H10.024v-5.568a5.165 5.165 0 0 1 5.16-5.159h33.632a5.165 5.165 0 0 1 5.16 5.159zm-9.164-16.878a1.082 1.082 0 0 0 .023-.148 1 1 0 0 0 .029-.187.954.954 0 0 0-.027-.206 1.032 1.032 0 0 0-.041-.166 21.655 21.655 0 0 0-.175-.3c-.129-.147-.246-.289-.346-.41a6.709 6.709 0 0 1 2.087-10.045l-1.587 4.29a1 1 0 0 0 .592 1.285l7.576 2.8a1 1 0 0 0 1.285-.592l1.587-4.292A6.708 6.708 0 0 1 50.9 17.15c-.178.031-.355.063-.551.087a.962.962 0 0 0-.128.043 1.039 1.039 0 0 0-.21.071 2.138 2.138 0 0 0-.3.242 1.036 1.036 0 0 0-.081.132.948.948 0 0 0-.1.158l-2.95 7.973h-5.358zM19.225 8.965l-1.587-4.29a6.709 6.709 0 0 1 2.1 10.022c-.116.142-.233.284-.362.431a21.655 21.655 0 0 0-.175.3 1.032 1.032 0 0 0-.041.166.954.954 0 0 0-.027.206 1 1 0 0 0 .029.187 1.082 1.082 0 0 0 .023.148l3.59 9.719H17.42l-2.947-7.973a.908.908 0 0 0-.1-.16.9.9 0 0 0-.08-.129 1.951 1.951 0 0 0-.3-.242.922.922 0 0 0-.213-.072.935.935 0 0 0-.126-.043c-.2-.024-.373-.056-.524-.082a6.708 6.708 0 0 1-4.945-8.986l1.587 4.292a1 1 0 0 0 1.285.592l7.576-2.8a1 1 0 0 0 .592-1.285z" fill="#ffffff" opacity="1" data-original="#000000" class=""></path></g></svg>