<svg xmlns="http://www.w3.org/2000/svg" version="1.1" xmlns:xlink="http://www.w3.org/1999/xlink" x="0" y="0" viewBox="0 0 32 32" style="enable-background:new 0 0 512 512" xml:space="preserve" class=""><circle r="16" cx="16" cy="16" fill="#ff4b1a" shape="circle"></circle><g transform="matrix(0.7,0,0,0.7,4.800750303268433,4.800000286102296)"><path d="M18.1 17.111h-2.931l1.508-2.72a.75.75 0 0 0-1.312-.727L13.24 17.5a.75.75 0 0 0 .656 1.114h2.9l-1.441 2.454a.75.75 0 0 0 1.294.76l2.1-3.584a.75.75 0 0 0-.647-1.13z" fill="#ffffff" opacity="1" data-original="#000000"></path><path d="M20.75.25h-9.5a2.087 2.087 0 0 0-2.084 2.084v7.191h-.841a2.108 2.108 0 0 0-2.1 2.105v9.386A4.986 4.986 0 0 0 11.2 26h.975v5a.75.75 0 0 0 1.5 0v-5h4.65v5a.75.75 0 0 0 1.5 0v-5h.975a4.986 4.986 0 0 0 4.98-4.98v-9.39a2.108 2.108 0 0 0-2.105-2.105h-.841V2.334A2.087 2.087 0 0 0 20.75.25zM10.666 2.334a.585.585 0 0 1 .584-.584h9.5a.585.585 0 0 1 .584.584v7.191H10.666zm13.614 9.3v9.386a3.484 3.484 0 0 1-3.48 3.48h-9.6a3.484 3.484 0 0 1-3.48-3.48v-9.39a.606.606 0 0 1 .6-.605h15.35a.606.606 0 0 1 .61.605z" fill="#ffffff" opacity="1" data-original="#000000"></path><path d="M14.49 4.888h-1.334a.75.75 0 0 0 0 1.5h1.334a.75.75 0 0 0 0-1.5zM18.844 4.888H17.51a.75.75 0 0 0 0 1.5h1.334a.75.75 0 0 0 0-1.5z" fill="#ffffff" opacity="1" data-original="#000000"></path></g></svg>