<svg id="Layer_1" viewBox="0 0 512 512" xmlns="http://www.w3.org/2000/svg" data-name="Layer 1"><path d="m262.276 434.059c-1.482 2.566-4.171 4-6.935 4-1.358 0-2.733-.346-3.994-1.074l-90.255-52.129c-3.826-2.21-5.136-7.103-2.927-10.929 2.21-3.826 7.104-5.135 10.929-2.927l90.255 52.129c3.826 2.21 5.136 7.103 2.927 10.929zm213.756-220.426v253.304c0 17.682-14.385 32.066-32.066 32.066h-156.756c-6.348 0-12.523-1.891-17.744-5.37-.696.045-1.394.069-2.094.069-5.428 0-10.925-1.375-15.956-4.269l-135.763-78.414c-7.395-4.254-12.699-11.163-14.925-19.447-2.226-8.288-1.096-16.931 3.183-24.336l61.044-105.721h-4.483c-7.676 0-14.611-2.878-20.057-8.324l-3.572-3.572c-2.482-2.482-5.269-3.638-8.771-3.638h-10.065c-3.279 8.908-11.85 15.279-21.882 15.279h-36.878c-12.836 0-23.279-10.456-23.279-23.307v-118.999c0-12.852 10.443-23.307 23.279-23.307h36.878c10.032 0 18.603 6.371 21.882 15.279h2.44c2.709 0 6.426-.767 11.162-6.746 16.538-20.988 27.816-37.452 33.578-73.511 2.017-11.978 11.931-19.116 24.117-17.426 16.984 2.354 33.242 21.294 29.918 51.757-.008.075-.018.151-.028.226l-4.159 30.138h52.417c15.259 0 27.672 12.414 27.672 27.672 0 4.942-1.305 9.583-3.584 13.603l52.058-6.907 9.29-16.251c6.485-11.365 17.056-19.536 29.764-23.002 12.702-3.465 25.958-1.8 37.329 4.689 23.549 13.471 31.762 43.57 18.316 67.1l-7.312 12.796 41.922 32.225c1.97 1.514 3.125 3.858 3.125 6.343zm-112.491-86.546.995-.132c2.165-.288 4.279.329 5.924 1.592l.003-.004 47.719 36.68 6.224-10.892c9.07-15.874 3.525-36.181-12.362-45.269-7.655-4.368-16.6-5.486-25.182-3.146-8.581 2.341-15.712 7.846-20.081 15.501l-3.241 5.669zm-260.108-8.132c0-4.029-3.278-7.307-7.307-7.307h-36.878c-3.945 0-7.279 3.346-7.279 7.307v118.999c0 3.961 3.333 7.307 7.279 7.307h36.878c4.029 0 7.307-3.278 7.307-7.307zm57.04 126.561h91.701c4.311 0 7.817-3.507 7.817-7.817s-3.507-7.817-7.817-7.817h-17.376c-4.418 0-8-3.582-8-8s3.582-8 8-8h26.306c6.139 0 11.134-4.995 11.134-11.134s-4.995-11.134-11.134-11.134h-17.376c-4.418 0-8-3.582-8-8s3.582-8 8-8h22.96c6.858 0 12.438-5.592 12.438-12.466s-5.58-12.438-12.438-12.438h-17.376c-4.418 0-8-3.582-8-8s3.582-8 8-8h18.142c6.436 0 11.672-5.236 11.672-11.672s-5.236-11.672-11.672-11.672h-78.123c-4.418 0-8-3.582-8-8s3.582-8 8-8h9.554l4.445-32.208c2.452-22.836-8.64-33.013-16.222-34.064-5.302-.736-5.926 2.955-6.131 4.168-6.347 39.725-19.261 58.565-36.812 80.838-6.746 8.518-14.721 12.828-23.717 12.828h-1.014v103.056h8.64c7.694 0 14.639 2.878 20.085 8.324l3.572 3.572c2.482 2.482 5.26 3.638 8.743 3.638zm98.934 230.056c7.673 4.413 17.525 1.773 21.954-5.891l124.68-215.958-45.497-110.098-6.987.927-15.493 27.101c-.507.888-.964 1.801-1.383 2.727 10.857 3.751 18.68 14.068 18.68 26.185 0 15.274-12.427 27.701-27.701 27.701s-27.701-12.426-27.701-27.701c0-12.543 8.382-23.159 19.837-26.557 1.058-3.565 2.509-7.024 4.375-10.292l9.443-16.518-40.535 5.378c1.314 3.271 2.046 6.836 2.046 10.571 0 9.687-4.859 18.259-12.265 23.403 3.376 4.523 5.377 10.131 5.377 16.197 0 10.533-6.033 19.683-14.824 24.178 1.648 3.237 2.579 6.898 2.579 10.773 0 13.133-10.685 23.817-23.817 23.817h-68.742l-65.666 113.724c-2.139 3.702-2.702 8.028-1.585 12.183 1.115 4.151 3.765 7.608 7.462 9.735l135.763 78.414zm56.553-275.007c0 6.452 5.249 11.701 11.701 11.701s11.701-5.249 11.701-11.701c0-4.179-2.209-7.843-5.514-9.913.195 2.528.667 5.048 1.442 7.506 1.329 4.214-1.009 8.707-5.222 10.037-.801.252-1.612.373-2.409.373-3.398 0-6.551-2.182-7.627-5.595-.944-2.991-1.579-6.047-1.939-9.121-1.339 1.903-2.133 4.215-2.133 6.713zm4.857 232.775h71.672c6.812 0 12.353-5.542 12.353-12.353v-76.224c0-6.811-5.542-12.353-12.353-12.353h-13.402l-58.27 100.929zm139.216-215.766-75.647-58.149 37.948 91.83c.949 2.296.777 4.903-.465 7.055l-33.544 58.101h4.165c15.634 0 28.353 12.719 28.353 28.353v76.224c0 15.634-12.719 28.353-28.353 28.353h-80.91l-16.364 28.343c-1.119 1.938-2.413 3.713-3.849 5.32h152.6c8.859 0 16.066-7.208 16.066-16.066v-249.363zm-230.656 131.976-3.063 5.299c-2.211 3.825-.903 8.718 2.922 10.93 1.261.729 2.638 1.076 3.997 1.076 2.763 0 5.451-1.433 6.933-3.998l3.072-5.313c3.233.977 6.522 1.471 9.754 1.471 10.438 0 20.258-4.963 25.502-14.021 11.408-19.766-2.604-32.335-11.876-40.653-10.884-9.764-13.043-13.225-8.708-20.736 3.712-6.413 13.042-7.989 20.789-3.52.001 0 .002.001.003.002 5.467 3.166 8.95 8.737 8.874 14.193-.062 4.418 3.469 8.049 7.887 8.111 4.397.066 8.049-3.47 8.111-7.887.123-8.776-3.743-17.245-10.401-23.464l3.063-5.298c2.211-3.825.904-8.718-2.921-10.93-3.825-2.211-8.719-.905-10.93 2.921l-3.063 5.298c-13.678-4.135-28.395.7-35.264 12.565-11.407 19.766 2.604 32.335 11.876 40.653 10.884 9.764 13.044 13.225 8.708 20.736-3.713 6.413-13.042 7.989-20.789 3.519-5.469-3.166-8.954-8.738-8.877-14.196.062-4.418-3.469-8.049-7.887-8.111-.038 0-.076 0-.114 0-4.366 0-7.936 3.509-7.997 7.888-.123 8.776 3.743 17.246 10.401 23.464z"/></svg>