<svg id="Layer_1" enable-background="new 0 0 500 500" viewBox="0 0 500 500" xmlns="http://www.w3.org/2000/svg"><path clip-rule="evenodd" d="m222.405 330.697h-104.008v95.251h35.276c2.925-11.542 13.397-20.104 25.83-20.104 12.439 0 22.905 8.562 25.835 20.104h17.067zm-29.354 101.801c0 7.463-6.079 13.543-13.548 13.543-7.463 0-13.542-6.079-13.542-13.543 0-7.469 6.079-13.548 13.542-13.548 7.469 0 13.548 6.079 13.548 13.548zm-89.16-6.55h1.401v-58.546h-34.157c-.207.314-.448.656-.723 1.003l-18.137 22.698-.028 34.733c2.964-11.481 13.414-19.992 25.813-19.992 12.428 0 22.894 8.562 25.831 20.104zm-12.294 6.55c0 7.463-6.068 13.543-13.537 13.543-7.474 0-13.548-6.079-13.548-13.543 0-7.469 6.074-13.548 13.548-13.548 7.47 0 13.537 6.079 13.537 13.548zm143.914-103.106v97.868c0 6.499-5.289 11.794-11.795 11.794h-18.378c-2.931 11.531-13.397 20.092-25.835 20.092-12.433 0-22.905-8.561-25.83-20.092h-49.783c-2.936 11.531-13.402 20.092-25.83 20.092-12.439 0-22.911-8.561-25.835-20.092h-6.528c-3.62 0-6.563-2.939-6.555-6.561l.028-43.687c0-1.49.51-2.925 1.434-4.085l19.919-25.079c.857-1.457 3.115-5.345 8.242-5.345h36.526v-24.905c0-6.505 5.295-11.8 11.795-11.8h106.63c6.505 0 11.795 5.295 11.795 11.8zm212.236 96.45-.023-34.738c-.136-.389-16.784-20.695-18.876-23.701h-34.139v58.546h1.395c2.925-11.542 13.402-20.104 25.835-20.104 12.399-.001 22.838 8.51 25.808 19.997zm-12.265 6.656c0 7.463-6.079 13.543-13.542 13.543-7.469 0-13.543-6.079-13.543-13.543 0-7.469 6.074-13.548 13.543-13.548 7.462 0 13.542 6.079 13.542 13.548zm-53.879-6.55v-95.251h-104.014v95.251h17.072c2.925-11.542 13.391-20.104 25.824-20.104s22.911 8.562 25.835 20.104zm-47.564 6.55c0 7.463-6.085 13.543-13.554 13.543s-13.543-6.079-13.543-13.543c0-7.469 6.074-13.548 13.543-13.548s13.554 6.079 13.554 13.548zm126.785-43.692.028 43.687c.001 3.624-2.926 6.561-6.55 6.561h-6.539c-2.925 11.531-13.391 20.092-25.824 20.092s-22.911-8.561-25.835-20.092h-49.783c-2.925 11.531-13.402 20.092-25.835 20.092s-22.9-8.561-25.824-20.092h-18.383c-6.505 0-11.794-5.295-11.794-11.794v-97.868c0-6.505 5.289-11.8 11.794-11.8h106.636c6.5 0 11.794 5.295 11.794 11.8v24.905h36.526c5.815 0 7.719 4.775 8.595 5.939l19.566 24.485c.924 1.16 1.428 2.594 1.428 4.085zm-413.955-243.316h101.913v-91.531h-26.9v23.925c0 7.374-5.345 13.374-11.906 13.374h-24.3c-6.561 0-11.906-6.001-11.906-13.374v-23.925h-26.9v91.531zm61.891-67.337h-21.869c-.006-.084-.017-.174-.017-.269v-23.925h21.902v23.925c0 .096-.011.185-.016.269zm-68.447 80.442c-3.62 0-6.55-2.936-6.55-6.555v-104.636c0-3.619 2.93-6.55 6.55-6.55h115.024c3.614 0 6.55 2.93 6.55 6.55v104.636c0 3.62-2.936 6.555-6.55 6.555zm158.722-13.105h101.924v-91.531h-26.906v23.925c0 7.374-5.34 13.374-11.912 13.374h-24.289c-6.567 0-11.918-6.001-11.918-13.374v-23.925h-26.9v91.531zm61.891-67.337h-21.868c-.006-.084-.017-.174-.017-.269v-23.925h21.908zm-74.996 73.887v-104.636c0-3.619 2.936-6.55 6.556-6.55h115.029c3.614 0 6.55 2.93 6.55 6.55v104.636c0 3.62-2.936 6.555-6.55 6.555h-115.03c-3.619 0-6.555-2.936-6.555-6.555zm267.201-98.081h-26.9v23.925c0 7.374-5.351 13.374-11.918 13.374h-24.289c-6.572 0-11.912-6.001-11.912-13.374v-23.925h-26.906v91.531h101.924v-91.531zm-40.033 24.194h-21.863l-.017-24.194h21.908zm53.138-30.749v104.636c0 3.62-2.936 6.555-6.555 6.555h-115.03c-3.614 0-6.55-2.936-6.55-6.555v-104.636c0-3.619 2.936-6.55 6.55-6.55h115.03c3.619 0 6.555 2.931 6.555 6.55zm-209.686 185.409v63.611c0 3.62-2.936 6.55-6.55 6.55-3.619 0-6.555-2.93-6.555-6.55v-63.611h-145.617c-3.625 0-6.55-2.936-6.55-6.555v-42.908c0-3.614 2.925-6.55 6.55-6.55 3.62 0 6.556 2.936 6.556 6.55v36.358h139.061v-36.358c0-3.614 2.936-6.55 6.555-6.55 3.614 0 6.55 2.936 6.55 6.55v36.358h139.066v-36.358c0-3.614 2.936-6.55 6.55-6.55 3.619 0 6.556 2.936 6.556 6.55v42.908c0 3.619-2.936 6.555-6.556 6.555z" fill-rule="evenodd"/></svg>