<svg xmlns="http://www.w3.org/2000/svg" version="1.1" xmlns:xlink="http://www.w3.org/1999/xlink" width="512" height="512" x="0" y="0" viewBox="0 0 512 512" style="enable-background:new 0 0 512 512" xml:space="preserve" class=""><g><path d="M437.02 74.98A256 256 0 0 0 74.98 437.02 256 256 0 0 0 437.02 74.98zM256 480C132.486 480 32 379.514 32 256S132.486 32 256 32s224 100.486 224 224-100.486 224-224 224zm112.634-275.973a16 16 0 0 1 0 22.627l-101.321 101.32a16 16 0 0 1-22.626 0l-101.32-101.32a16 16 0 0 1 22.627-22.627L256 294.033l90.007-90.006a16 16 0 0 1 22.627 0z" fill="#444444" opacity="1" data-original="#000000" class=""></path></g></svg>