<svg xmlns="http://www.w3.org/2000/svg" version="1.1" xmlns:xlink="http://www.w3.org/1999/xlink" width="512" height="512" x="0" y="0" viewBox="0 0 512.003 512.003" style="enable-background:new 0 0 512 512" xml:space="preserve"><g><path d="M511.894 224.153C493.837 75.538 339.868-33.946 180.825 9.693c-48.372 13.272-93.964 46.671-128.38 94.043C19.115 149.613 0 204.677 0 254.809l.001 71.836c0 17.602 10.354 33.683 26.379 40.967.15.068.302.134.455.198l331.281 137.56c44.213 18.335 95.411-2.529 113.646-48.418 1.729-4.351 3.491-9.182 5.256-14.211l13.277 6.638a14.982 14.982 0 0 0 6.707 1.583 14.998 14.998 0 0 0 15.001-15v-210c0-.288-.084-1.598-.109-1.809zm-68.013 221.719c-11.935 30.034-45.329 43.789-74.269 31.787L38.607 340.214a15.033 15.033 0 0 1-8.606-13.569L30 254.808c0-93.571 72.704-192.572 158.764-216.185 131.994-36.217 263.467 47.101 290.09 169.954l-186.272-23.284c-26.802-3.352-50.581 17.56-50.581 44.652v67.476c0 17.155 9.532 32.577 24.875 40.249l183.082 91.541c-2.074 6.01-4.13 11.762-6.077 16.661zm-141.88-229.168v104.987l-21.708-10.853a14.917 14.917 0 0 1-8.292-13.416v-67.476c0-9.138 8.002-15.993 16.86-14.884l13.14 1.642zm180 194.988-150-75V220.454l150 18.75v172.488z" fill="#616161" opacity="1" data-original="#000000"></path><path d="M120.001 210.962c-33.084 0-60 26.916-60 60s26.916 60 60 60 60-26.916 60-60-26.916-60-60-60zm0 90c-16.542 0-30-13.458-30-30s13.458-30 30-30 30 13.458 30 30-13.458 30-30 30z" fill="#616161" opacity="1" data-original="#000000"></path></g></svg>