<svg xmlns="http://www.w3.org/2000/svg" version="1.1" xmlns:xlink="http://www.w3.org/1999/xlink" width="512" height="512" x="0" y="0" viewBox="0 0 74 74" style="enable-background:new 0 0 512 512" xml:space="preserve"><g><path d="M66.417 60.292H7.583A5.59 5.59 0 0 1 2 54.708v-4a1 1 0 0 1 1-1h68a1 1 0 0 1 1 1v4a5.59 5.59 0 0 1-5.583 5.584zM4 51.708v3a3.587 3.587 0 0 0 3.583 3.584h58.834A3.587 3.587 0 0 0 70 54.708v-3z" fill="#000000" opacity="1" data-original="#000000"></path><path d="M42.323 55.708H31.677a2.471 2.471 0 0 1-2.469-2.468v-2.532a1 1 0 0 1 1-1h13.584a1 1 0 0 1 1 1v2.532a2.471 2.471 0 0 1-2.469 2.468zm-11.115-4v1.532a.469.469 0 0 0 .469.468h10.646a.469.469 0 0 0 .469-.468v-1.532z" fill="#000000" opacity="1" data-original="#000000"></path><path d="M65.464 51.708H8.536a1 1 0 0 1-1-1V17.815a4.112 4.112 0 0 1 4.107-4.107h50.714a4.112 4.112 0 0 1 4.107 4.107v32.893a1 1 0 0 1-1 1zm-55.928-2h54.928V17.815a2.11 2.11 0 0 0-2.107-2.107H11.643a2.11 2.11 0 0 0-2.107 2.107z" fill="#000000" opacity="1" data-original="#000000"></path></g></svg>