<?xml version="1.0" encoding="UTF-8"?>
<svg xmlns="http://www.w3.org/2000/svg" id="Outline" viewBox="0 0 512 512" width="512" height="512"><path d="M280,256v32a24,24,0,0,0,48,0V256a24,24,0,0,0-48,0Zm32,0v32a8,8,0,0,1-16,0V256a8,8,0,0,1,16,0Z"/><path d="M88,88a40.045,40.045,0,0,0-40,40v48H40a8,8,0,0,0-8,8v56H24a8,8,0,0,0-6.656,12.438L48,298.422V368a40.045,40.045,0,0,0,40,40H205.754l-12,48H168a40.045,40.045,0,0,0-40,40,8,8,0,0,0,8,8H376a8,8,0,0,0,8-8,40.045,40.045,0,0,0-40-40H318.246l-12-48H424a40.045,40.045,0,0,0,40-40V210.422l30.656-45.984A8,8,0,0,0,488,152h-8V32a8,8,0,0,0-8-8H440a8,8,0,0,0-8,8V88.812A40.092,40.092,0,0,0,424,88H297.994q-.926-2.373-1.989-4.691l13.652-13.652a8,8,0,0,0,0-11.314l-32-32a8,8,0,0,0-11.314,0L252.691,39.995q-2.318-1.062-4.691-1.989V16a8,8,0,0,0-8-8H192a8,8,0,0,0-8,8V38.006q-2.373.925-4.691,1.989L165.657,26.343a8,8,0,0,0-11.314,0l-32,32a8,8,0,0,0,0,11.314L136,83.309q-1.062,2.317-1.989,4.691ZM56,281.578,38.948,256H40a8,8,0,0,0,8-8V192H64v56a8,8,0,0,0,8,8h1.052ZM344,472a24.042,24.042,0,0,1,22.629,16H145.371A24.042,24.042,0,0,1,168,472ZM210.246,456l12-48h67.508l12,48ZM448,368a24.027,24.027,0,0,1-24,24H88a24.027,24.027,0,0,1-24-24V344H448Zm-8-200a8,8,0,0,0,8-8V40h16V160a8,8,0,0,0,8,8h1.052L456,193.578,438.948,168ZM328,144V104h96a24.068,24.068,0,0,1,8,1.375V152h-8a8,8,0,0,0-6.656,12.438L448,210.422V328H64V298.422l30.656-45.984A8,8,0,0,0,88,240H80V184a8,8,0,0,0-8-8H64V128a24.027,24.027,0,0,1,24-24h16v40a8,8,0,0,0,8,8h22.006q.925,2.373,1.989,4.691l-13.652,13.652a8,8,0,0,0,0,11.314l32,32a8,8,0,0,0,11.314,0l13.652-13.652q2.318,1.062,4.691,1.989V224a8,8,0,0,0,8,8h48a8,8,0,0,0,8-8V201.994q2.373-.925,4.691-1.989l13.652,13.652a8,8,0,0,0,11.314,0l32-32a8,8,0,0,0,0-11.314l-13.652-13.652q1.062-2.318,1.989-4.691H320A8,8,0,0,0,328,144ZM151.387,76.073,139.313,64,160,43.313l12.073,12.074a8,8,0,0,0,9.488,1.366A71.454,71.454,0,0,1,194.392,51.3,8,8,0,0,0,200,43.67V24h32V43.67a8,8,0,0,0,5.608,7.634,71.454,71.454,0,0,1,12.831,5.449,8,8,0,0,0,9.488-1.366L272,43.313,292.687,64,280.613,76.073a8,8,0,0,0-1.366,9.488A71.454,71.454,0,0,1,284.7,98.392,8,8,0,0,0,292.33,104H312v32H292.33a8,8,0,0,0-7.634,5.608,71.454,71.454,0,0,1-5.449,12.831,8,8,0,0,0,1.366,9.488L292.687,176,272,196.687l-12.073-12.074a8,8,0,0,0-9.488-1.366,71.454,71.454,0,0,1-12.831,5.449A8,8,0,0,0,232,196.33V216H200V196.33a8,8,0,0,0-5.608-7.634,71.454,71.454,0,0,1-12.831-5.449,8,8,0,0,0-9.488,1.366L160,196.687,139.313,176l12.074-12.073a8,8,0,0,0,1.366-9.488,71.454,71.454,0,0,1-5.449-12.831A8,8,0,0,0,139.67,136H120V104h19.67a8,8,0,0,0,7.634-5.608,71.454,71.454,0,0,1,5.449-12.831A8,8,0,0,0,151.387,76.073Z"/><path d="M368,296a8.009,8.009,0,0,1-8-8,8,8,0,0,0-16,0,24,24,0,1,0,24-24,8,8,0,1,1,8-8,8,8,0,0,0,16,0,24,24,0,1,0-24,24,8,8,0,0,1,0,16Z"/><path d="M216,184a64,64,0,1,0-64-64A64.072,64.072,0,0,0,216,184Zm0-112a48,48,0,1,1-48,48A48.055,48.055,0,0,1,216,72Z"/><path d="M216,152a32,32,0,1,0-32-32A32.036,32.036,0,0,0,216,152Zm0-48a16,16,0,1,1-16,16A16.019,16.019,0,0,1,216,104Z"/></svg>
