<svg xmlns="http://www.w3.org/2000/svg" version="1.1" xmlns:xlink="http://www.w3.org/1999/xlink" width="512" height="512" x="0" y="0" viewBox="0 0 511.993 511" style="enable-background:new 0 0 512 512" xml:space="preserve" class=""><g><path d="M164.902 123.121c-11.664-11.66-30.574-11.656-42.234.008s-11.66 30.57 0 42.234c11.66 11.664 30.57 11.664 42.234.008 11.653-11.68 11.649-30.586-.007-42.258zm-12.074 30.164a12.796 12.796 0 0 1-13.95 2.778 12.796 12.796 0 0 1-7.901-11.825 12.797 12.797 0 0 1 21.851-9.05c4.996 4.996 4.996 13.101 0 18.097zM376.512 415.352a38.09 38.09 0 0 0 27.11-11.227c12.991-12.96 15.015-33.293 4.835-48.559-10.184-15.265-29.73-21.207-46.687-14.195-16.954 7.012-26.594 25.027-23.016 43.024 3.574 17.996 19.367 30.96 37.715 30.957zm-15.094-53.47c8.332-8.331 21.84-8.331 30.172 0 8.332 8.333 8.332 21.845 0 30.177-8.45 8.039-21.723 8.039-30.172 0a21.335 21.335 0 0 1 0-30.176zm0 0" fill="#616161" opacity="1" data-original="#000000"></path><path d="M416.492 5.496c-3.203-3.2-7.543-5-12.07-5s-8.871 1.8-12.07 5L374.25 23.563l-24.133 24.132-84.476 84.48a25.586 25.586 0 0 0-7.5 18.102 25.588 25.588 0 0 0 7.5 18.106l3.113 3.097a25.605 25.605 0 0 0 21.879 7.16.316.316 0 0 1 .12 0l.759-.085h.136l-16.554 16.554c-5.301 5.297-11.844 11.45-19.098 18.004-7.594-6.828-14.164-12.996-19.148-17.972l-16.52-16.586c.29 0 .586.05.852.093a.627.627 0 0 1 .12 0 25.541 25.541 0 0 0 21.88-7.152l3.12-3.113c9.997-9.996 9.997-26.203 0-36.2l-84.476-84.48-24.082-24.14-18.101-18.067c-6.754-6.45-17.387-6.45-24.141 0L4.996 95.95c-6.66 6.668-6.66 17.469 0 24.133l18.102 18.11L131.707 246.82a25.6 25.6 0 0 0 36.207 0l3.106-3.113a25.463 25.463 0 0 0 7.187-20.66c0-.086.05-.152.05-.238-.007-.418-.038-.836-.093-1.246 0-.258-.043-.489-.078-.735l16.574 16.527c4.317 4.32 9.3 9.567 14.422 15.184-33.102 25.836-68.27 49.254-88.75 53.598a69.583 69.583 0 0 0-13.992 4.691l-3.637-3.633a17.062 17.062 0 0 0-24.14 0l-12.008 12.032c-3.2 3.199-5 7.543-5 12.07s1.8 8.867 5 12.07l3.218 3.207a71.953 71.953 0 0 0 5.317 70.606 75.922 75.922 0 0 0 20.18 20.207 71.492 71.492 0 0 0 70.675 5.351l3.192 3.2a17.066 17.066 0 0 0 24.14 0l12.024-12.067c6.66-6.664 6.66-17.469 0-24.133l-3.637-3.644a69.48 69.48 0 0 0 4.676-13.95c4.133-19.37 25.406-51.996 49.605-83.542 28.442 37.043 46.078 66.558 49.723 83.488a69.246 69.246 0 0 0 4.676 13.996l-3.64 3.644a17.062 17.062 0 0 0 0 24.141l12.062 12.067c3.203 3.203 7.543 5 12.074 5 4.527 0 8.867-1.797 12.07-5l3.192-3.192a71.534 71.534 0 0 0 70.636-5.332 75.078 75.078 0 0 0 11.094-9.156 73.263 73.263 0 0 0 9.07-11.028 71.959 71.959 0 0 0 5.344-70.648l3.215-3.215a17.063 17.063 0 0 0 0-24.14l-12.055-12.067c-6.668-6.664-17.469-6.664-24.133 0l-3.644 3.645a65.01 65.01 0 0 0-13.969-4.66c-17.808-3.797-49.203-22.887-88.746-53.692 5.211-5.676 10.078-10.777 14.41-15.113l16.555-16.555c-.043.317-.05.59-.094.93-.05.437-.074.883-.074 1.324 0 .074.043.145.043.219a25.44 25.44 0 0 0 7.191 20.48l3.106 3.117a25.602 25.602 0 0 0 36.207 0l108.64-108.648 18.098-18.105c6.664-6.664 6.664-17.47 0-24.133zm54.305 126.723-12.074 12.066-90.504-90.558 12.066-12.067 45.227 45.227zM86.457 86.992l45.227-45.226 12.066 12.066-90.48 90.41-12.075-12.066zm21.11-69.394 12.074 12.074-90.454 90.453-12.125-12.09zm51.39 214.03-3.11 3.118a8.526 8.526 0 0 1-12.074 0L65.336 156.31l90.504-90.516 78.45 78.45a8.54 8.54 0 0 1 0 12.066l-3.126 3.105a8.71 8.71 0 0 1-7.441 2.32c-.18 0-.348 0-.528-.043-1.554-.195-3.125-.382-5.265-.46h-.332c-1.16 0-2.313 0-3.473.085h-2.043a54.49 54.49 0 0 0-11.996 2.22c-.402.12-.734.16-1.145.288l-.18.07c-.109.043-.21.06-.312.102-1.332.453-2.613 1.016-3.91 1.57-.367.153-.785.29-1.133.442l-.156.07-.852.402c-.941.415-1.855.887-2.73 1.422l-1.957 1.121c-.23.145-.469.262-.7.407l-.288.164c-1.23.851-2.559 1.707-3.696 2.558l-.222.2c-.555.418-1.09.851-1.63 1.277a46.127 46.127 0 0 0-4.128 3.68 48.071 48.071 0 0 0-3.688 4.136 59.768 59.768 0 0 0-1.261 1.606l-.2.238c-.73.957-1.507 2.09-2.43 3.492-.179.281-.382.555-.562.852l-1.008 1.785c-.332.527-.511 1.004-.793 1.535a53.843 53.843 0 0 0-3.355 7.68c-.059.129-.086.265-.137.39-.05.13 0 .188-.074.274l-.121.308c-.152.512-.246 1.06-.39 1.579a53.385 53.385 0 0 0-1.298 5.574c-.18.953-.308 1.816-.386 2.558a64.013 64.013 0 0 0-.34 3.567v.094a26.737 26.737 0 0 0-.129 3.875v2.046c.059 1.434.23 2.868.426 4.415v.066c0 .238 0 .476.05.719a8.68 8.68 0 0 1-2.394 7.53zm47.785-6.39-25.215-25.136a37.966 37.966 0 0 1 4.094-6.649c.137-.18.281-.324.387-.476.101-.157.398-.489.578-.72l.086-.109c.758-.906 1.527-1.808 2.371-2.664.844-.851 1.707-1.586 2.621-2.336.344-.214.664-.464.957-.746.238-.16.441-.347.664-.527a37.899 37.899 0 0 1 6.067-3.738c.101 0 .18-.094.289-.145l25.148 25.215c4.875 4.875 11.094 10.777 18.348 17.297a898.276 898.276 0 0 1-20.684 17.332c-5.566-6.125-11.008-11.867-15.726-16.59zm181.52 97.621a49.72 49.72 0 0 1 14.996 5.618c.25.12.508.226.773.316.172.074.336.145.504.203a7.508 7.508 0 0 0 5.871 0c.172-.058.332-.129.504-.203a8.268 8.268 0 0 0 2.652-1.785l7.786-7.781 12.066 12.066-7.543 7.543c-.156.16-.207.367-.351.527a8.63 8.63 0 0 0-.958 1.442 6.253 6.253 0 0 0-.98 3.004 7.878 7.878 0 0 0-.102 1.632c.055.516.153 1.028.297 1.528.133.57.328 1.125.582 1.652.094.2.094.41.203.598a55.673 55.673 0 0 1-1.816 58.508 54.086 54.086 0 0 1-4.617 5.843c-.074.086-.188.13-.266.223a24.232 24.232 0 0 1-1.996 2.25l-.125.148-.172.153a30.24 30.24 0 0 1-2.246 1.996c-.094.07-.125.172-.219.246a54.85 54.85 0 0 1-5.882 4.652 55.681 55.681 0 0 1-58.461 1.785c-.188-.113-.403-.113-.598-.207a7.688 7.688 0 0 0-1.644-.578 8.023 8.023 0 0 0-1.547-.3 8.443 8.443 0 0 0-1.602.093 7.927 7.927 0 0 0-1.598.317 11.64 11.64 0 0 0-2.867 1.629c-.164.144-.375.195-.527.351l-7.547 7.543-12.066-12.066 7.843-7.844c.121-.125.164-.297.282-.426a7.736 7.736 0 0 0 1.074-1.62c.23-.388.43-.794.598-1.212a8.806 8.806 0 0 0 .359-1.828 5.84 5.84 0 0 0-.238-3.105 7.681 7.681 0 0 0-.489-1.485c-.082-.187-.082-.39-.187-.57a52.013 52.013 0 0 1-5.64-15.149c-5.376-25.128-32.29-63.914-55.524-93.867a891.809 891.809 0 0 1 24.668-29.457c31.043 24.297 70.93 52.113 96.75 57.617zm-82.977-97.586c-5.265 5.258-12.7 13.192-21.223 22.75-.078.094-.187.13-.265.23-.074.102-.05.122-.094.18-34.133 38.399-86.297 103.739-94.062 140.196a51.968 51.968 0 0 1-5.649 15.094c-.094.172-.086.351-.172.52a8.441 8.441 0 0 0-.547 1.706 6.11 6.11 0 0 0-.168 3.149c.055.535.16 1.066.317 1.578.433 1.02.988 1.976 1.652 2.86.13.136.172.323.309.46l7.851 7.844-12.074 12.031-7.535-7.543c-.164-.156-.367-.207-.531-.351a11.643 11.643 0 0 0-2.875-1.637 8.832 8.832 0 0 0-1.563-.3 8.196 8.196 0 0 0-1.636-.103 8.37 8.37 0 0 0-1.52.301c-.59.125-1.164.32-1.707.578-.195.094-.41.094-.598.207a55.653 55.653 0 0 1-58.496-1.812 54.768 54.768 0 0 1-5.836-4.606c-.093-.078-.136-.195-.238-.28a26.74 26.74 0 0 1-4.531-4.532c-.078-.094-.188-.129-.266-.223a52.476 52.476 0 0 1-4.648-5.898c-11.621-17.57-12.309-40.203-1.785-58.453.109-.196.109-.407.214-.606a8.75 8.75 0 0 0 .563-1.62 9.501 9.501 0 0 0-.102-4.763 7.396 7.396 0 0 0-.675-1.406 8.145 8.145 0 0 0-.965-1.469c-.145-.16-.196-.367-.348-.52l-7.543-7.542 12.074-12.066 7.832 7.84a8.377 8.377 0 0 0 2.5 1.656c.227.109.461.207.7.289.902.343 1.859.527 2.824.547a8.613 8.613 0 0 0 2.824-.547c.234-.078.46-.176.684-.282.222-.101.46-.144.683-.273a52.464 52.464 0 0 1 15.145-5.664c26.265-5.59 67.601-34.29 103.015-62.68.094-.074.207-.101.301-.176.094-.078.066-.113.11-.156 12.8-10.308 24.816-20.48 35.054-29.558 10.461-9.278 19.168-17.399 24.746-23.04l25.285-25.199a37.654 37.654 0 0 1 7.004 4.352c.266.23.54.476.856.7l.12.093c.903.762 1.798 1.52 2.653 2.363.852.848 1.614 1.758 2.371 2.664l.07.086c.22.297.454.582.708.852l.136.195-.203-.195c.125.187.332.418.52.648a29.124 29.124 0 0 1 1.926 2.738 35.374 35.374 0 0 1 1.793 3.297c.043.094.093.18.144.282zm62.934 9.48a8.533 8.533 0 0 1-12.074 0l-3.106-3.112a8.678 8.678 0 0 1-2.312-7.45c0-.18 0-.367.039-.554.199-1.547.386-3.11.46-5.242v-.317c.044-1.441 0-2.875-.101-4.266v-.972a54.183 54.183 0 0 0-2.313-12.594c-.085-.3-.117-.539-.21-.855l-.051-.125c-.547-1.649-1.215-3.254-1.914-4.84-.086-.188-.153-.41-.23-.59v-.074c-.153-.325-.29-.66-.442-.985a23.57 23.57 0 0 0-1.41-2.695l-1.051-1.809c-.168-.289-.324-.59-.5-.855l-.137-.238c-.855-1.235-1.707-2.559-2.613-3.703l-.18-.211c-.418-.555-.851-1.094-1.277-1.633a50.048 50.048 0 0 0-3.688-4.137 58.006 58.006 0 0 0-5.453-4.719l-.094-.078c-.144-.117-.289-.246-.433-.36-.524-.398-1.094-.85-1.707-1.234-.617-.386-1.094-.753-1.649-1.109-.351-.23-.632-.43-1.03-.684l-1.708-.949a55.214 55.214 0 0 0-3.133-1.62c-.297-.138-.64-.356-.922-.477-.144-.059-.316-.11-.46-.18a51.338 51.338 0 0 0-4.829-1.895c-.308-.109-.554-.23-.855-.34l-.262-.07a55.73 55.73 0 0 0-7.554-1.75c-.434-.074-.852-.125-1.22-.176-1.425-.199-2.859-.343-4.265-.43a32.472 32.472 0 0 0-2.68-.124h-3.277c-1.469.066-2.937.23-4.394.426h-.13c-.214 0-.425 0-.648.043a8.738 8.738 0 0 1-7.449-2.32l-3.105-3.11a8.532 8.532 0 0 1 0-12.067l78.445-78.445 90.36 90.48zm114.644-114.651L392.41 29.648l12.074-12.078 90.446 90.465zm0 0" fill="#616161" opacity="1" data-original="#000000"></path><path d="M347.098 123.113c-11.664 11.664-11.66 30.575.004 42.235 11.66 11.664 30.57 11.664 42.234 0 11.664-11.66 11.664-30.57.004-42.235-11.68-11.64-30.574-11.636-42.25.008zm30.164 30.18c-4.996 5-13.102 4.996-18.098-.004-4.996-4.996-4.996-13.098 0-18.098 4.996-5 13.102-5 18.098-.004a12.796 12.796 0 0 1 0 18.106zM108.371 349.816c-14.996 14.996-14.996 39.313 0 54.309s39.309 14.996 54.305 0c14.996-14.996 14.996-39.313 0-54.309a38.141 38.141 0 0 0-27.153-11.351 38.134 38.134 0 0 0-27.152 11.351zm42.238 42.243c-8.449 8.039-21.722 8.039-30.172 0-8.332-8.332-8.328-21.84 0-30.168 8.333-8.332 21.84-8.332 30.168 0 8.333 8.328 8.333 21.836.004 30.168zm0 0" fill="#616161" opacity="1" data-original="#000000"></path></g></svg>