<svg id="Capa_1" enable-background="new 0 0 511.989 511.989" height="512" viewBox="0 0 511.989 511.989" width="512" xmlns="http://www.w3.org/2000/svg"><g><path d="m491.199 360.478h-76.785l34.174-46.144c2.465-3.329 1.765-8.025-1.563-10.491-3.329-2.465-8.024-1.765-10.491 1.563l-68.126 91.988h-113.081l-8.996-47.878c24.724-14.406 44.134-25.715 45.029-26.236 1.777-1.035 3.052-2.756 3.524-4.758l11.967-50.723 171.587-18.974-23.941 32.326c-2.465 3.329-1.765 8.025 1.563 10.491 3.328 2.464 8.024 1.766 10.491-1.563l40.134-54.189c8.879-11.988 6.349-28.967-5.641-37.848l-175.611-130.06c-11.99-8.879-28.968-6.351-37.849 5.64l-212.445 286.856h-55.32c-10.928 0-19.819 8.89-19.819 19.819v49.194c0 10.929 8.891 19.819 19.819 19.819h22.355c4.143 0 7.5-3.357 7.5-7.5s-3.357-7.5-7.5-7.5h-22.355c-2.657 0-4.819-2.162-4.819-4.819v-49.194c0-2.657 2.162-4.819 4.819-4.819h44.211l-9.056 12.228c-2.149 2.901-3.664 6.21-4.513 9.689h-11.649c-4.143 0-7.5 3.357-7.5 7.5s3.357 7.5 7.5 7.5h434.376c4.143 0 7.5-3.357 7.5-7.5s-3.357-7.5-7.5-7.5h-86.115l16.232-21.917h87.894c2.657 0 4.819 2.162 4.819 4.819v49.194c0 2.657-2.162 4.819-4.819 4.819h-419.037c-4.143 0-7.5 3.357-7.5 7.5s3.357 7.5 7.5 7.5h419.037c10.929 0 19.819-8.891 19.819-19.819v-49.194c.001-10.929-8.89-19.819-19.819-19.819zm-251.135 36.917h-75.905c18.763-10.932 44.782-26.093 68.415-39.863zm-173.557 0c.163-.259.337-.514.521-.762l232.611-314.083c3.957-5.342 11.521-6.471 16.866-2.513l16.373 12.126-14.212 60.234c-.951 4.032 1.546 8.071 5.578 9.022 4.028.951 8.07-1.546 9.021-5.578l12.731-53.963 146.12 108.218c5.343 3.957 6.471 11.522 2.514 16.865l-4.019 5.427-180.105 19.916 15.779-66.88c.951-4.032-1.546-8.071-5.577-9.022-4.031-.95-8.071 1.544-9.022 5.577l-30.662 129.963c-18.696 10.894-124.815 72.725-146.66 85.453z"/></g></svg>