<svg xmlns="http://www.w3.org/2000/svg" version="1.1" xmlns:xlink="http://www.w3.org/1999/xlink" width="512" height="512" x="0" y="0" viewBox="0 0 352.633 187.541" style="enable-background:new 0 0 512 512" xml:space="preserve" class=""><g><path d="M82.419 126.567h19.72c-2.163-11.643-8.238-21.904-16.816-29.377l-10.405 16.584a32.342 32.342 0 0 1 7.501 12.793z" fill="#ff3600" opacity="1" data-original="#000000" class=""></path><path d="M51.511 168.354c-17.823 0-32.325-14.501-32.325-32.324s14.501-32.324 32.325-32.324c3.44 0 6.754.545 9.866 1.545l10.405-16.584a51.339 51.339 0 0 0-20.27-4.147C23.062 84.52 0 107.582 0 136.03s23.062 51.51 51.511 51.51c25.891 0 47.314-19.105 50.958-43.985H82.941c-3.401 14.205-16.198 24.799-31.43 24.799zM301.123 84.52a51.6 51.6 0 0 0-13.02 1.663l8.326 17.868c1.533-.224 3.1-.345 4.694-.345 17.823 0 32.325 14.501 32.325 32.324s-14.501 32.324-32.325 32.324c-17.823 0-32.324-14.501-32.324-32.324 0-9.594 4.206-18.221 10.866-24.146l-8.326-17.868c-13.143 9.334-21.727 24.667-21.727 42.014 0 28.448 23.062 51.51 51.51 51.51s51.511-23.062 51.511-51.51-23.062-51.51-51.51-51.51z" fill="#ff3600" opacity="1" data-original="#000000" class=""></path><path d="m298.731 142.596 8.958-4.174-27.83-59.725-35.34-75.842a4.943 4.943 0 0 0-5.76-2.686l-27.284 7.32 2.561 9.546 23.277-6.245 7.766 16.666c-11.62.194-74.569 2.623-88.025 32.419h-46.639L89.662 49.304a40.686 40.686 0 0 0-15.55-4.328l-33.528-2.408a9.92 9.92 0 0 0-9.588 5.469l-1.293 2.593a10.667 10.667 0 0 0-.573 8.128l.105.316-27.81 25.18 3.73 4.12 26.66-24.138 51.013 6.823.647.086 1.359 2.363-33.288 53.058H63.35l27.128-43.239 1.694 2.946 23.164 40.293 1.725 3H36.99v10.989h86.388l1.42 2.469c.104.181.221.352.329.531a25.467 25.467 0 0 0 21.758 12.249h64.042l33.582-69.052h-37.997v-3.05h39.481l2.292-4.712h-58.292v-3.05h61.13l14.822-3.705 5.102 10.948zM286.076 56.648c9.335 0 9.335-33.804 0-33.804s-16.902 7.566-16.902 16.902 7.567 16.902 16.902 16.902z" fill="#ff3600" opacity="1" data-original="#000000" class=""></path></g></svg>