<?xml version="1.0" encoding="UTF-8" standalone="no"?>
<!-- Created with Inkscape (http://www.inkscape.org/) -->

<svg
   version="1.1"
   id="svg237"
   xml:space="preserve"
   width="682.66669"
   height="682.66669"
   viewBox="0 0 682.66669 682.66669"
   xmlns="http://www.w3.org/2000/svg"
   xmlns:svg="http://www.w3.org/2000/svg"><defs
     id="defs241"><clipPath
       clipPathUnits="userSpaceOnUse"
       id="clipPath251"><path
         d="M 0,512 H 512 V 0 H 0 Z"
         id="path249" /></clipPath></defs><g
     id="g243"
     transform="matrix(1.3333333,0,0,-1.3333333,0,682.66667)"><g
       id="g245"><g
         id="g247"
         clip-path="url(#clipPath251)"><g
           id="g253"
           transform="translate(167.4087,195.6992)"><path
             d="m 0,0 c -4.105,-40.422 -38.243,-71.965 -79.748,-71.965 -44.271,0 -80.161,35.889 -80.161,80.161 0,44.272 35.89,80.161 80.161,80.161 16.105,0 31.101,-4.749 43.663,-12.923"
             style="fill:none;stroke:#000000;stroke-width:15;stroke-linecap:round;stroke-linejoin:round;stroke-miterlimit:10;stroke-dasharray:none;stroke-opacity:1"
             id="path255" /></g><g
           id="g257"
           transform="translate(134.2051,216.0652)"><path
             d="m 0,0 c 1.014,-3.887 1.553,-7.966 1.553,-12.17 0,-26.563 -21.533,-48.097 -48.097,-48.097 -26.563,0 -48.097,21.534 -48.097,48.097 0,26.563 21.534,48.097 48.097,48.097 7.782,0 15.133,-1.848 21.637,-5.13"
             style="fill:none;stroke:#000000;stroke-width:15;stroke-linecap:round;stroke-linejoin:round;stroke-miterlimit:10;stroke-dasharray:none;stroke-opacity:1"
             id="path259" /></g><g
           id="g261"
           transform="translate(399.5918,280.1636)"><path
             d="m 0,0 c 7.794,2.527 16.111,3.893 24.747,3.893 44.272,0 80.161,-35.89 80.161,-80.161 0,-44.272 -35.889,-80.162 -80.161,-80.162 -37.079,0 -68.278,25.175 -77.437,59.364"
             style="fill:none;stroke:#000000;stroke-width:15;stroke-linecap:round;stroke-linejoin:round;stroke-miterlimit:10;stroke-dasharray:none;stroke-opacity:1"
             id="path263" /></g><g
           id="g265"
           transform="translate(446.6548,246.5125)"><path
             d="m 0,0 c 15.326,-8.042 25.781,-24.109 25.781,-42.617 0,-26.563 -21.534,-48.097 -48.097,-48.097 -26.563,0 -48.097,21.534 -48.097,48.097 0,19.922 12.113,37.015 29.375,44.317"
             style="fill:none;stroke:#000000;stroke-width:15;stroke-linecap:round;stroke-linejoin:round;stroke-miterlimit:10;stroke-dasharray:none;stroke-opacity:1"
             id="path267" /></g><g
           id="g269"
           transform="translate(274.3701,243.6418)"><path
             d="m 0,0 -66.467,88.511 22.515,18.012 c 11.371,9.097 25.499,14.053 40.061,14.053 h 33.618 c 17.709,0 32.064,-14.356 32.064,-32.065 v -8.016 h 49.011 c 11.194,0 18.942,11.181 15.011,21.662 l -15.925,42.467 h 15.247 c 5.482,0 10.583,-2.8 13.526,-7.425 l 40.096,-63.007 c 5.682,-8.93 1.305,-20.818 -8.811,-23.931 L 124.252,36.202 C 100.76,28.973 83.466,8.953 79.729,-15.34 L 72.944,-59.436 C 71.14,-71.167 61.045,-79.827 49.176,-79.827 h -100.78 c -9.109,0 -17.436,5.146 -21.51,13.293 l -6.292,12.585 c -1.777,3.554 -0.682,7.874 2.573,10.152 l 32.914,23.04"
             style="fill:none;stroke:#000000;stroke-width:15;stroke-linecap:round;stroke-linejoin:round;stroke-miterlimit:10;stroke-dasharray:none;stroke-opacity:1"
             id="path271" /></g><g
           id="g273"
           transform="translate(233.7793,302.5393)"><path
             d="m 0,0 21.875,15.625 c 5.438,3.885 11.955,5.973 18.637,5.973 h 61.87"
             style="fill:none;stroke:#000000;stroke-width:15;stroke-linecap:round;stroke-linejoin:round;stroke-miterlimit:10;stroke-dasharray:none;stroke-opacity:1"
             id="path275" /></g><g
           id="g277"
           transform="translate(368.2256,356.2017)"><path
             d="M 0,0 H 24.049"
             style="fill:none;stroke:#000000;stroke-width:15;stroke-linecap:round;stroke-linejoin:round;stroke-miterlimit:10;stroke-dasharray:none;stroke-opacity:1"
             id="path279" /></g><g
           id="g281"
           transform="translate(207.9033,332.1533)"><path
             d="m 0,0 h -36.539 c -7.305,0 -14.214,3.321 -18.778,9.025 l -15.217,19.022 c -6.085,7.606 -15.298,12.034 -25.038,12.034 h -48.719 L 26.386,-90.516"
             style="fill:none;stroke:#000000;stroke-width:15;stroke-linecap:round;stroke-linejoin:round;stroke-miterlimit:10;stroke-dasharray:none;stroke-opacity:1"
             id="path283" /></g><g
           id="g285"
           transform="translate(280.0483,227.9436)"><path
             d="m 0,0 c 0,-13.281 -10.767,-24.048 -24.048,-24.048 -13.282,0 -24.049,10.767 -24.049,24.048 0,13.281 10.767,24.048 24.049,24.048 C -10.767,24.048 0,13.281 0,0 Z"
             style="fill:none;stroke:#000000;stroke-width:15;stroke-linecap:round;stroke-linejoin:round;stroke-miterlimit:10;stroke-dasharray:none;stroke-opacity:1"
             id="path287" /></g><g
           id="g289"
           transform="translate(103.6934,203.8953)"><path
             d="m 0,0 c 0,-8.854 -7.178,-16.032 -16.032,-16.032 -8.854,0 -16.032,7.178 -16.032,16.032 0,8.854 7.178,16.032 16.032,16.032 C -7.178,16.032 0,8.854 0,0 Z"
             style="fill:none;stroke:#000000;stroke-width:15;stroke-linecap:round;stroke-linejoin:round;stroke-miterlimit:10;stroke-dasharray:none;stroke-opacity:1"
             id="path291" /></g><g
           id="g293"
           transform="translate(200.0757,178.5264)"><path
             d="m 0,0 -63.566,35.639 c -3.87,2.15 -5.265,7.03 -3.115,10.9 l 7.786,14.018 c 2.15,3.87 7.03,5.265 10.9,3.115 L 9.714,31.499"
             style="fill:none;stroke:#000000;stroke-width:15;stroke-linecap:round;stroke-linejoin:round;stroke-miterlimit:10;stroke-dasharray:none;stroke-opacity:1"
             id="path295" /></g><g
           id="g297"
           transform="translate(183.521,228.2776)"><path
             d="M 0,0 25.05,28.39"
             style="fill:none;stroke:#000000;stroke-width:15;stroke-linecap:round;stroke-linejoin:round;stroke-miterlimit:10;stroke-dasharray:none;stroke-opacity:1"
             id="path299" /></g><g
           id="g301"
           transform="translate(352.1934,292.0725)"><path
             d="m 0,0 h -75.334 c -1.67,0 -3.299,-0.522 -4.659,-1.493 l -19.786,-14.132"
             style="fill:none;stroke:#000000;stroke-width:15;stroke-linecap:round;stroke-linejoin:round;stroke-miterlimit:10;stroke-dasharray:none;stroke-opacity:1"
             id="path303" /></g><g
           id="g305"
           transform="translate(440.3711,203.8953)"><path
             d="m 0,0 c 0,-8.854 -7.178,-16.032 -16.032,-16.032 -8.855,0 -16.032,7.178 -16.032,16.032 0,8.854 7.177,16.032 16.032,16.032 C -7.178,16.032 0,8.854 0,0 Z"
             style="fill:none;stroke:#000000;stroke-width:15;stroke-linecap:round;stroke-linejoin:round;stroke-miterlimit:10;stroke-dasharray:none;stroke-opacity:1"
             id="path307" /></g><g
           id="g309"
           transform="translate(397.4438,277.8564)"><path
             d="M 0,0 20.436,-56.199"
             style="fill:none;stroke:#000000;stroke-width:15;stroke-linecap:round;stroke-linejoin:round;stroke-miterlimit:10;stroke-dasharray:none;stroke-opacity:1"
             id="path311" /></g></g></g></g></svg>
