<svg id="Layer_1" enable-background="new 0 0 512 512" height="512" viewBox="0 0 512 512" width="512" xmlns="http://www.w3.org/2000/svg"><path d="m395.051 340.428c34.549-35.192 55.895-83.388 55.895-136.484-.001-107.492-87.453-194.944-194.946-194.944s-194.945 87.452-194.945 194.945c0 53.095 21.346 101.291 55.895 136.484l-52.093 90.227c-1.375 2.383-1.228 5.351.378 7.585s4.373 3.322 7.069 2.776l70.109-14.152 22.801 67.793c.877 2.608 3.201 4.46 5.938 4.734.234.023.467.035.698.035 2.481 0 4.802-1.32 6.061-3.5l56.704-98.216c7.025.77 14.158 1.178 21.385 1.178s14.359-.408 21.384-1.178l58.767 101.789c1.259 2.18 3.578 3.5 6.061 3.5.231 0 .465-.011.698-.035 2.737-.273 5.062-2.126 5.938-4.734l22.8-67.793 70.11 14.151c2.695.545 5.463-.542 7.069-2.776 1.605-2.234 1.754-5.203.378-7.585zm-221.511 135.07-19.825-58.947c-1.125-3.344-4.563-5.325-8.02-4.63l-60.96 12.305 42.667-73.9c25.702 22.607 57.38 38.564 92.328 45.167zm-98.485-271.553c0-99.774 81.172-180.945 180.945-180.945s180.945 81.171 180.945 180.945-81.172 180.945-180.945 180.945-180.945-81.172-180.945-180.945zm293.311 211.549c-3.457-.698-6.895 1.287-8.02 4.63l-19.824 58.946-48.254-83.578c34.948-6.603 66.628-22.56 92.33-45.167l44.73 77.473zm-112.366-356.355c-79.846 0-144.806 64.959-144.806 144.806s64.96 144.805 144.806 144.805 144.806-64.959 144.806-144.806-64.96-144.805-144.806-144.805zm0 275.611c-72.127 0-130.806-58.679-130.806-130.806s58.679-130.805 130.806-130.805 130.806 58.679 130.806 130.806-58.679 130.805-130.806 130.805zm94.157-152.613c-.889-2.735-3.36-4.648-6.23-4.824l-59.553-3.637-21.86-55.514c-1.055-2.676-3.638-4.435-6.514-4.435s-5.459 1.759-6.514 4.435l-21.86 55.514-59.553 3.637c-2.87.175-5.342 2.088-6.23 4.824s-.015 5.736 2.205 7.565l46.041 37.946-14.943 57.761c-.721 2.784.335 5.726 2.662 7.417s5.452 1.785 7.876.24l50.316-32.063 50.316 32.062c1.15.733 2.457 1.097 3.762 1.097 1.446 0 2.891-.448 4.114-1.337 2.327-1.69 3.383-4.632 2.662-7.417l-14.943-57.761 46.041-37.946c2.22-1.828 3.094-4.829 2.205-7.564zm-60.593 37.544c-2.1 1.73-3.006 4.521-2.325 7.155l11.609 44.871-39.086-24.907c-1.147-.731-2.454-1.097-3.762-1.097s-2.614.366-3.762 1.097l-39.087 24.907 11.609-44.871c.681-2.634-.226-5.425-2.325-7.155l-35.767-29.478 46.263-2.825c2.716-.166 5.09-1.89 6.087-4.422l16.982-43.124 16.981 43.125c.997 2.532 3.371 4.256 6.087 4.422l46.263 2.825z"/></svg>