<svg id="Layer_1" height="512" viewBox="0 0 512 512" width="512" xmlns="http://www.w3.org/2000/svg" data-name="Layer 1"><circle cx="256" cy="256" fill="#2196f3" r="256"/><path d="m256 324.817a66.12 66.12 0 1 0 -66.121-66.117 66.195 66.195 0 0 0 66.121 66.117zm0-154.654a88.534 88.534 0 1 1 -88.531 88.537 88.636 88.636 0 0 1 88.531-88.537zm162.5 196.308a15.421 15.421 0 0 1 -15.41 15.411h-294.179a15.424 15.424 0 0 1 -15.411-15.411v-195.185a15.424 15.424 0 0 1 15.41-15.412h74.7a5.6 5.6 0 0 0 5.232-3.6l16.045-41.92h102.225l16.048 41.92a5.585 5.585 0 0 0 5.229 3.6h74.7a15.426 15.426 0 0 1 15.41 15.412z" fill="#fff" fill-rule="evenodd"/></svg>