<?xml version="1.0" encoding="UTF-8"?>
<svg version="1.1" xmlns="http://www.w3.org/2000/svg" width="256" height="256">
<path d="M0 0 C1.05823353 -0.00551503 1.05823353 -0.00551503 2.13784552 -0.01114148 C4.50201997 -0.0221549 6.86615044 -0.02601823 9.23034668 -0.02983093 C10.9257318 -0.03609754 12.62111555 -0.04274452 14.3164978 -0.04974365 C19.88607835 -0.07076963 25.45565912 -0.08114728 31.02526855 -0.09111023 C32.94549066 -0.09515886 34.86571263 -0.09927582 36.78593445 -0.10346031 C45.81159656 -0.12251176 54.83725052 -0.13674076 63.86292887 -0.14507228 C74.26455819 -0.15483343 84.66597408 -0.18112381 95.06752825 -0.22157317 C103.11698853 -0.25179572 111.16638787 -0.26654712 119.21590376 -0.26985329 C124.01850834 -0.27219751 128.82088489 -0.28107535 133.62342834 -0.30631447 C138.1477456 -0.32970667 142.67168653 -0.33378392 147.19604874 -0.32355309 C148.84873333 -0.32306025 150.50143716 -0.3293055 152.15406418 -0.34310913 C168.39524779 -0.47107699 181.49398821 3.3705997 193.99401855 14.14717102 C202.47440047 23.91245929 208.09721763 35.14864668 208.14118958 48.15315247 C208.14486626 48.85864149 208.14854295 49.56413051 208.15233105 50.29099798 C208.16334447 52.65517244 208.1672078 55.0193029 208.17102051 57.38349915 C208.17728712 59.07888426 208.18393409 60.77426801 208.19093323 62.46965027 C208.2119592 68.03923082 208.22233685 73.60881159 208.2322998 79.17842102 C208.23634844 81.09864313 208.24046539 83.0188651 208.24464989 84.93908691 C208.26370134 93.96474903 208.27793033 102.99040298 208.28626186 112.01608133 C208.29602301 122.41771066 208.32231339 132.81912655 208.36276275 143.22068071 C208.39298529 151.270141 208.4077367 159.31954033 208.41104287 167.36905622 C208.41338709 172.1716608 208.42226493 176.97403736 208.44750404 181.77658081 C208.47089624 186.30089807 208.47497349 190.82483899 208.46474266 195.3492012 C208.46424983 197.0018858 208.47049508 198.65458962 208.48429871 200.30721664 C208.61226656 216.54840025 204.77058988 229.64714068 193.99401855 242.14717102 C184.22873029 250.62755294 172.9925429 256.25037009 159.98803711 256.29434204 C159.28254809 256.29801873 158.57705907 256.30169542 157.85019159 256.30548352 C155.48601714 256.31649694 153.12188667 256.32036027 150.75769043 256.32417297 C149.06230531 256.33043958 147.36692156 256.33708656 145.67153931 256.34408569 C140.10195875 256.36511167 134.53237799 256.37548932 128.96276855 256.38545227 C127.04254645 256.3895009 125.12232448 256.39361786 123.20210266 256.39780235 C114.17644055 256.4168538 105.15078659 256.4310828 96.12510824 256.43941432 C85.72347892 256.44917547 75.32206303 256.47546585 64.92050886 256.51591522 C56.87104858 256.54613776 48.82164924 256.56088916 40.77213335 256.56419533 C35.96952877 256.56653955 31.16715222 256.5754174 26.36460876 256.60065651 C21.84029151 256.62404871 17.31635058 256.62812596 12.79198837 256.61789513 C11.13930378 256.61740229 9.48659995 256.62364754 7.83397293 256.63745117 C-8.40721068 256.76541903 -21.5059511 252.92374235 -34.00598145 242.14717102 C-42.48636336 232.38188275 -48.10918052 221.14569536 -48.15315247 208.14118958 C-48.15682915 207.43570055 -48.16050584 206.73021153 -48.16429394 206.00334406 C-48.17530736 203.6391696 -48.17917069 201.27503914 -48.1829834 198.9108429 C-48.18925001 197.21545778 -48.19589698 195.52007403 -48.20289612 193.82469177 C-48.2239221 188.25511122 -48.23429974 182.68553045 -48.2442627 177.11592102 C-48.24831133 175.19569891 -48.25242828 173.27547694 -48.25661278 171.35525513 C-48.27566423 162.32959301 -48.28989322 153.30393906 -48.29822475 144.27826071 C-48.3079859 133.87663138 -48.33427628 123.47521549 -48.37472564 113.07366133 C-48.40494818 105.02420104 -48.41969959 96.97480171 -48.42300576 88.92528582 C-48.42534998 84.12268124 -48.43422782 79.32030468 -48.45946693 74.51776123 C-48.48285913 69.99344397 -48.48693638 65.46950305 -48.47670555 60.94514084 C-48.47621272 59.29245624 -48.48245797 57.63975242 -48.4962616 55.9871254 C-48.62422945 39.74594179 -44.78255277 26.64720136 -34.00598145 14.14717102 C-24.24069318 5.6667891 -13.00450579 0.04397195 0 0 Z " fill="#DDEFFF" transform="translate(48.0059814453125,-0.1471710205078125)"/>
<path d="M0 0 C1.27300964 -0.00570007 2.54601929 -0.01140015 3.85760498 -0.01727295 C6.55061395 -0.02669727 9.2435123 -0.03360611 11.93652344 -0.03710938 C14.65541218 -0.0414645 17.3739783 -0.05524894 20.09277344 -0.078125 C72.62092521 -0.51128224 72.62092521 -0.51128224 88.4765625 14.828125 C96.28679411 23.22120971 97.80486028 33.16478579 99.47143555 44.10424805 C99.72287776 45.72588998 100.00804641 47.34232408 100.30714417 48.95585632 C100.78274311 52.10942037 100.93683842 55.07180763 100.95800781 58.25830078 C100.96761536 59.43458038 100.9772229 60.61085999 100.98712158 61.82278442 C100.9934964 63.7164827 100.9934964 63.7164827 101 65.6484375 C101.00424107 66.62876764 101.00424107 66.62876764 101.00856781 67.62890244 C101.0235307 71.10140122 101.03277308 74.57385892 101.03710938 78.04638672 C101.04145957 80.87594748 101.05521898 83.7051974 101.078125 86.53466797 C101.50026893 139.7253378 101.50026893 139.7253378 86.20703125 155.8828125 C73.09766625 168.28272951 49.97930793 168.34919836 33.0859375 168.40625 C32.43172192 168.40907738 31.77750633 168.41190475 31.10346603 168.41481781 C27.63326375 168.42974279 24.16310224 168.4390114 20.69287109 168.44335938 C17.86331135 168.44772349 15.03406005 168.46154345 12.20458984 168.484375 C-3.13985917 168.60581057 -18.16380628 168.66568863 -33.203125 165.203125 C-34.22607666 164.96988525 -35.24902832 164.73664551 -36.30297852 164.49633789 C-45.86356241 162.14481527 -53.64592975 156.27048938 -59.203125 148.203125 C-66.94459583 134.36306782 -67.35420631 115.90267052 -67.40625 100.4921875 C-67.41049107 99.51086412 -67.41049107 99.51086412 -67.41481781 98.50971603 C-67.42974279 95.03951375 -67.4390114 91.56935224 -67.44335938 88.09912109 C-67.44772349 85.26956135 -67.46154345 82.44031005 -67.484375 79.61083984 C-67.60581057 64.26639083 -67.66568863 49.24244372 -64.203125 34.203125 C-63.96988525 33.18017334 -63.73664551 32.15722168 -63.49633789 31.10327148 C-60.93507328 20.6899397 -54.2480623 12.67450357 -45.2890625 6.98828125 C-37.92222891 3.21953434 -29.31392191 2.33797252 -21.203125 1.203125 C-20.06915283 1.02966553 -18.93518066 0.85620605 -17.7668457 0.67749023 C-11.86377146 -0.0479238 -5.93939642 0.02088862 0 0 Z " fill="#048CFF" transform="translate(111.203125,43.796875)"/>
<path d="M0 0 C1.47577953 -0.00322244 2.95155875 -0.00658721 4.42733765 -0.01008606 C7.51195006 -0.01604673 10.59653459 -0.01792924 13.68115234 -0.01733398 C17.59067015 -0.0172328 21.50000458 -0.03085396 25.40947914 -0.04810619 C28.45711043 -0.05935038 31.50469921 -0.0612494 34.55234909 -0.06072426 C35.99132287 -0.06188698 37.4302984 -0.06620978 38.86925125 -0.07405663 C70.82751162 -0.23196406 70.82751162 -0.23196406 82.27734375 10.50390625 C91.71964747 21.00631196 91.23233154 38.83150349 91.13671875 52.078125 C91.13619749 53.54389953 91.13672542 55.00967476 91.13822937 56.47544861 C91.13814066 59.51832792 91.12792027 62.56093675 91.10961914 65.60375977 C91.0869155 69.45818634 91.08640283 73.31222047 91.09313679 77.16669559 C91.09651517 80.18431443 91.08977522 83.20184757 91.08000755 86.21945 C91.07622307 87.63887519 91.07497842 89.05831002 91.0765934 90.47773933 C91.08118131 114.57314995 91.08118131 114.57314995 86.7734375 124.16796875 C86.34933594 123.79720215 85.92523438 123.42643555 85.48828125 123.04443359 C45.80150544 88.64559358 -0.71381195 83.25616707 -51.2265625 82.16796875 C-51.27777987 75.85493483 -51.31251035 69.54195559 -51.33642578 63.22875977 C-51.34640856 61.08648679 -51.35999952 58.94422718 -51.37744141 56.80200195 C-51.66649616 20.35559807 -51.66649616 20.35559807 -40.92578125 8.66796875 C-29.95584455 -1.01583744 -13.64529495 0.00706554 0 0 Z " fill="#DCEFFF" transform="translate(108.2265625,56.83203125)"/>
<path d="M0 0 C37.59143502 -0.42077549 37.59143502 -0.42077549 52 2 C52.75216797 2.1129541 53.50433594 2.2259082 54.27929688 2.34228516 C80.35417797 6.31737417 110.98956789 16.84875903 127.8125 38.3125 C128.204375 38.869375 128.59625 39.42625 129 40 C116.75324535 47.69796007 102.27646403 47.3167712 88.22265625 47.30078125 C86.75784692 47.30468674 85.29303868 47.30902505 83.82823181 47.31376648 C80.7836436 47.32115282 77.7391715 47.32099288 74.69458008 47.31567383 C70.8412722 47.30988091 66.98844528 47.32684316 63.13521671 47.3500185 C60.11756226 47.36492496 57.10001929 47.36560505 54.08233452 47.36250877 C52.66372156 47.36301326 51.24510083 47.36808155 49.82652473 47.37832069 C36.94920329 47.45992017 20.14331451 47.43160206 10.078125 38.24609375 C0.17075581 27.78604074 -0.20327967 13.78479428 0 0 Z " fill="#DCEFFF" transform="translate(57,152)"/>
<path d="M0 0 C4.84282659 3.14593066 9.37982309 7.32458738 11 13 C11.787235 20.27177898 12.29756883 27.92999415 8.328125 34.359375 C3.70732209 40.06742565 -1.89601561 44.22405643 -9.3125 45.3515625 C-16.89499435 45.8017731 -23.16917249 43.39532291 -28.85546875 38.35546875 C-34.11825943 32.59888536 -36.68420542 26.44936796 -36.41015625 18.62109375 C-35.28677632 11.44216105 -31.55530573 5.55903979 -25.81640625 1.18359375 C-17.28448461 -4.37591648 -8.97497797 -4.29378443 0 0 Z " fill="#058DFF" transform="translate(166,81)"/>
<path d="M0 0 C2.70567626 1.82339052 4.53728718 3.07457436 6 6 C6.68128376 12.81283762 6.68128376 12.81283762 4.953125 15.82421875 C2.26628467 19.0879395 0.44125877 20.80346471 -3.75 21.375 C-8.2753858 20.8528401 -9.7671103 19.15770622 -13 16 C-14.61429923 12.77140153 -14.59570657 9.49006347 -14 6 C-10.35149397 -0.3576579 -6.99805105 -1.54194345 0 0 Z " fill="#D8EDFF" transform="translate(158,92)"/>
</svg>
