<svg id="Layer_1" enable-background="new 0 0 64 64" viewBox="0 0 64 64" xmlns="http://www.w3.org/2000/svg"><g><g><g><path d="m41.36 22.11-5.61-9.2c-.02-.04-.05-.07-.09-.09l-1.83-1.06c-.64-.37-1.1-.96-1.29-1.68-.19-.71-.09-1.46.28-2.09.76-1.32 2.45-1.77 3.77-1.01l2.61 1.51c.33.19.6.46.8.78l6.08 9.97zm-6.15-13.5c-.26 0-.52.14-.66.38-.1.18-.13.38-.08.58s.18.36.35.46l1.83 1.06c.33.19.6.46.8.78l4.57 7.5 1.3-.79-5.04-8.26c-.02-.04-.05-.07-.09-.09l-2.61-1.51c-.12-.08-.25-.11-.37-.11z"/></g></g><g><g><path d="m54.93 51.47c-.64 0-1.27-.21-1.8-.64l-8.37-6.79.21-.37c1.21-2.1 2.99-3.81 5.13-4.93l.36-.19 6.69 8.25c.93 1.14.84 2.79-.2 3.83-.56.56-1.29.84-2.02.84zm-8.88-7.66 7.7 6.24c.74.6 1.81.55 2.49-.13s.73-1.75.13-2.49l-6.17-7.61c-1.69.97-3.11 2.34-4.15 3.99z"/></g></g><g><g><path d="m9.48 51.47c-.73 0-1.47-.28-2.02-.84-1.04-1.04-1.13-2.69-.2-3.83l6.84-8.43.36.17c2.2 1.07 4.05 2.74 5.34 4.83l.23.37-8.74 7.09c-.54.43-1.18.64-1.81.64zm4.89-11.85-6.34 7.81c-.6.74-.55 1.81.13 2.49s1.75.73 2.49.13l8.05-6.53c-1.1-1.64-2.58-2.98-4.33-3.9z"/></g></g><g><g><path d="m55.51 53.39c-2.39 0-4.34-1.95-4.34-4.34v-.05l.07-.96.75.59 1.77 1.43c.74.6 1.81.55 2.49-.13s.73-1.75.13-2.49l-2.14-2.64.95-.07c.11-.01.22-.02.33-.02 2.39 0 4.34 1.95 4.34 4.34-.01 2.39-1.96 4.34-4.35 4.34zm-3.13-3.16c.48 1.26 1.7 2.16 3.13 2.16 1.84 0 3.34-1.5 3.34-3.34 0-1.56-1.07-2.87-2.51-3.24l.81 1c.93 1.14.84 2.79-.2 3.83s-2.69 1.13-3.83.2z"/></g></g><g><g><path d="m9.42 53.39c-2.39 0-4.34-1.95-4.34-4.34 0-2.29 1.79-4.19 4.08-4.33l1.13-.07-2.26 2.79c-.6.74-.55 1.81.13 2.49s1.75.73 2.49.13l2.98-2.42.1.9c.02.16.03.33.03.5.01 2.4-1.94 4.35-4.34 4.35zm-1.61-7.27c-1.03.57-1.73 1.67-1.73 2.92 0 1.84 1.5 3.34 3.34 3.34 1.63 0 2.99-1.17 3.28-2.71l-1.43 1.16c-1.14.93-2.79.84-3.83-.2s-1.13-2.69-.2-3.83z"/></g></g><g><g><path d="m55.51 57.39c-4.6 0-8.34-3.74-8.34-8.34 0-.96.17-1.93.51-2.85l1.88.69c-.26.71-.39 1.44-.39 2.17 0 3.5 2.85 6.34 6.34 6.34 3.5 0 6.34-2.85 6.34-6.34 0-3.5-2.85-6.34-6.34-6.34-.8 0-1.59.15-2.35.45l-.74-1.86c.99-.4 2.03-.6 3.09-.6 4.6 0 8.34 3.74 8.34 8.34s-3.74 8.34-8.34 8.34z"/></g></g><g><g><path d="m9.42 57.39c-4.6 0-8.34-3.74-8.34-8.34s3.74-8.34 8.34-8.34c.89 0 1.77.14 2.62.43l-.63 1.9c-.65-.22-1.32-.33-1.99-.33-3.5 0-6.34 2.85-6.34 6.34 0 3.5 2.85 6.34 6.34 6.34s6.34-2.85 6.34-6.34c0-.85-.17-1.68-.49-2.45l1.84-.77c.43 1.02.65 2.11.65 3.23.01 4.59-3.74 8.33-8.34 8.33z"/></g></g><g><g><path d="m54.56 27.49h-1c-3 0-5.44-2.44-5.44-5.44s2.44-5.44 5.44-5.44h1zm-2-8.73c-1.41.43-2.44 1.74-2.44 3.29s1.03 2.86 2.44 3.29z"/></g></g><g><g><path d="m23.51 43.34h18.16v1h-18.16z"/></g></g><g><g><path d="m30.67 29.25-25.73-1.19.16-1.09c.01-.08.02-.16.02-.24v-4.3c0-1.14.51-2.2 1.41-2.9.89-.71 2.04-.96 3.15-.69l6.9 1.65c2.25.54 4.55.65 6.84.33l4.49-.62c1.25-.17 2.48.3 3.3 1.25s1.1 2.24.75 3.45zm-23.55-3.09 22.08 1.02.83-2.84c.17-.56.04-1.14-.34-1.58s-.94-.65-1.52-.57l-4.49.62c-2.54.35-5.09.23-7.58-.37l-6.9-1.65c-.51-.12-1.03-.01-1.44.32-.41.32-.64.81-.64 1.33z"/></g></g><g><g><path d="m44.87 48.23h-24.03l-.85-.34-.12-.5c-1.23-5.07-5.74-8.62-10.95-8.62-1.88 0-3.74.47-5.38 1.37l-.78.42-.51-.72c-.08-.11-.13-.17-.18-.24l-1.5-2.39c-.82-1.3-.74-2.99.19-4.21l4.01-5.25c.17-.23.29-.5.33-.79l1.98.29c-.09.63-.34 1.22-.72 1.71l-4.01 5.25c-.43.56-.46 1.34-.09 1.93l1.15 1.83c1.72-.79 3.61-1.2 5.51-1.2 5.9 0 11.02 3.85 12.7 9.46h21.68c1.68-5.61 6.79-9.46 12.7-9.46 1.64 0 3.24.3 4.77.9l1.05-1.91c.28-.5.19-1.12-.21-1.54-1.3-1.35-3.7-3.04-7.8-3.37-.56-.05-1.08-.35-1.38-.81l-6.07-9.11-1.52-.81-3.02 1.46 1.9 2.73c.85 1.23 1.15 2.77.82 4.23l-2 8.85c-.31 1.36-1.49 2.36-2.89 2.42l-6.71.32c-.97.04-1.89-.35-2.51-1.09-1.33-1.56-3.4-4.7-2.31-8.21l.86-2.92 1.92.56-.86 2.93c-.81 2.61.85 5.08 1.92 6.33.22.26.55.4.9.39l6.71-.32c.5-.02.92-.38 1.03-.86l2-8.85c.21-.91.02-1.88-.52-2.65l-2-2.89c-.31-.44-.4-.99-.27-1.51.14-.52.49-.95.98-1.19l3.27-1.58c.53-.25 1.15-.24 1.66.03l1.63.87c.27.14.5.35.66.6l6.05 9.07c4.69.4 7.49 2.38 9.02 3.98 1.01 1.06 1.22 2.62.52 3.89l-1.94 3.52-.85-.4c-1.52-.72-3.13-1.08-4.78-1.08-5.25 0-9.76 3.57-10.96 8.69z"/></g></g><g><g><path d="m47.92 34.5c-1.37 0-2.48-1.31-2.48-2.91 0-1.61 1.11-2.91 2.48-2.91s2.48 1.31 2.48 2.91c0 1.61-1.11 2.91-2.48 2.91zm0-4.83c-.82 0-1.48.86-1.48 1.91 0 1.06.66 1.91 1.48 1.91s1.48-.86 1.48-1.91-.67-1.91-1.48-1.91z"/></g></g><g><g><path d="m9.1 35.92c-1.37 0-2.48-1.31-2.48-2.91 0-1.61 1.11-2.91 2.48-2.91s2.48 1.31 2.48 2.91-1.12 2.91-2.48 2.91zm0-4.83c-.82 0-1.48.86-1.48 1.91s.66 1.91 1.48 1.91 1.48-.86 1.48-1.91-.67-1.91-1.48-1.91z"/></g></g></g></svg>