<svg xmlns="http://www.w3.org/2000/svg" version="1.1" xmlns:xlink="http://www.w3.org/1999/xlink" width="512" height="512" x="0" y="0" viewBox="0 0 512 512" style="enable-background:new 0 0 512 512" xml:space="preserve" class=""><g><ellipse cx="98.88" cy="391.83" rx="73.99" ry="73.98" transform="rotate(-.7 99.094 393.5)" fill="#ff3600" opacity="1" data-original="#000000" class=""></ellipse><ellipse cx="436.51" cy="391.83" rx="73.99" ry="73.98" transform="rotate(-.7 437.969 393.115)" fill="#ff3600" opacity="1" data-original="#000000" class=""></ellipse><path d="M287.27 105.65a23.64 23.64 0 0 0 16.47 6.86L343.87 257c7.24 26.05.76 54.24-17.83 73.88 0 0-23.88 25.73-59.63 25.77A42.71 42.71 0 0 1 224 313.92a209.35 209.35 0 0 1 5.2-46.4c4.46-17.47 7.37-23.17 12.72-34.13 17.46-2.39 24.2-28.08 11.29-49-13.54-22-43.22-24.52-79-12S105 178.16 58.8 170.26c-46.45-7.94-53.72 63.33-20.17 63.33h20.28A148.77 148.77 0 0 0 2.7 293.42 24.11 24.11 0 0 0 13 325.94a14.46 14.46 0 0 0 16.57-2.55 96.59 96.59 0 0 1 40.14-24.49 106.5 106.5 0 0 1 29.17-4.46 97.49 97.49 0 0 1 97.38 97.39q0 3-.18 6.05a5 5 0 0 0 5 5.32h113a26.75 26.75 0 0 0 25.81-23.61 97.42 97.42 0 0 1 67.46-80.68 106.5 106.5 0 0 1 29.17-4.46 96.93 96.93 0 0 1 61.66 22.07c7.08 5.81 17.13-2.36 12.78-10.42l-.12-.21a144.11 144.11 0 0 0-62.88-59c-3.79-1.84-7.63-3.49-11.49-5-1.3-66.88-78.93-129.35-78.93-129.35C378.39 113.76 379.12 93 379.12 93c1.28-25.17-15.76-45.34-39.27-46.72a28.6 28.6 0 0 0-16.8 4.41l-13.6 8.54a90.9 90.9 0 0 1-14.36 7.53A23.75 23.75 0 0 0 281 82.84s-6.27 1.86-8.57 4a11.09 11.09 0 0 0 5.71 19.42s3.2.54 9.13-.61Z" fill="#ff3600" opacity="1" data-original="#000000" class=""></path></g></svg>