<svg xmlns="http://www.w3.org/2000/svg" version="1.1" xmlns:xlink="http://www.w3.org/1999/xlink" width="512" height="512" x="0" y="0" viewBox="0 0 512 512" style="enable-background:new 0 0 512 512" xml:space="preserve" class=""><g><path d="M325.131 323.765H186.869C179.788 285.212 146.011 256 105.412 256c-40.173 0-73.665 28.601-81.226 66.551-5.368-2.302-9.127-7.635-9.127-13.846v-7.529C6.742 301.176 0 294.434 0 286.118c0-8.317 6.742-15.059 15.059-15.059v-128c0-8.317 6.742-15.059 15.059-15.059h37.647c0-8.317 6.742-15.059 15.059-15.059S97.882 119.683 97.882 128h90.353c0-8.317 6.742-15.059 15.059-15.059s15.059 6.742 15.059 15.059h105.381a15.06 15.06 0 0 1 12.482 6.635l41.254 61.13h89.354c16.634 0 30.118 13.484 30.118 30.118v45.176c8.317 0 15.059 6.742 15.059 15.059s-6.742 15.059-15.059 15.059v7.529c0 6.21-3.76 11.543-9.127 13.846C480.253 284.601 446.761 256 406.588 256c-40.599 0-74.376 29.212-81.457 67.765zm-219.719 75.294c-33.267 0-60.235-26.968-60.235-60.235s26.968-60.235 60.235-60.235 60.235 26.968 60.235 60.235-26.968 60.235-60.235 60.235zm0-30.118c16.634 0 30.118-13.484 30.118-30.118s-13.484-30.118-30.118-30.118-30.118 13.484-30.118 30.118 13.484 30.118 30.118 30.118zm301.176 30.118c-33.267 0-60.235-26.968-60.235-60.235s26.968-60.235 60.235-60.235 60.235 26.968 60.235 60.235-26.968 60.235-60.235 60.235zm0-30.118c16.634 0 30.118-13.484 30.118-30.118s-13.484-30.118-30.118-30.118-30.118 13.484-30.118 30.118c.001 16.634 13.484 30.118 30.118 30.118z" fill="#ff3600" opacity="1" data-original="#000000" class=""></path></g></svg>