<?xml version="1.0" encoding="UTF-8"?>
<svg xmlns="http://www.w3.org/2000/svg" xmlns:xlink="http://www.w3.org/1999/xlink" version="1.1" id="Capa_1" x="0px" y="0px" viewBox="0 0 511.999 511.999" style="enable-background:new 0 0 511.999 511.999;" xml:space="preserve" width="512" height="512">
<g>
	<path style="fill-rule:evenodd;clip-rule:evenodd;fill:none;stroke:#000000;stroke-width:15.0001;stroke-miterlimit:22.9256;" d="&#10;&#9;&#9;M309.72,459.499v30c0,8.249,6.75,15,15,15h37.5c8.249,0,15-6.754,15-15V369.5l-22.5-37.5H62.427l-22.5,37.5V489.5&#10;&#9;&#9;c0,8.249,6.75,15,15,15h37.5c8.249,0,15-6.754,15-15v-30 M39.927,459.499h146.147 M201.073,459.499h15 M231.073,459.499H377.22"/>
	<path style="fill-rule:evenodd;clip-rule:evenodd;fill:none;stroke:#000000;stroke-width:15.0001;stroke-miterlimit:22.9256;" d="&#10;&#9;&#9;M101.106,332c0-25.534,20.7-46.234,46.234-46.234c25.534,0,46.234,20.7,46.234,46.234"/>
	<path style="fill-rule:evenodd;clip-rule:evenodd;fill:none;stroke:#000000;stroke-width:15.0001;stroke-miterlimit:22.9256;" d="&#10;&#9;&#9;M354.72,332l-15-82.5c-1.475-8.116-6.756-15-15-15H92.426c-8.243,0-13.525,6.889-14.999,15l-15,82.5"/>
	
		<line style="fill-rule:evenodd;clip-rule:evenodd;fill:none;stroke:#000000;stroke-width:15.0001;stroke-miterlimit:22.9256;" x1="39.927" y1="369.5" x2="377.22" y2="369.5"/>
	<path style="fill-rule:evenodd;clip-rule:evenodd;fill:none;stroke:#000000;stroke-width:15.0001;stroke-miterlimit:22.9256;" d="&#10;&#9;&#9;M39.927,429.499h45c8.25,0,15-6.75,15-15v-15h-60 M377.22,429.499h-45c-8.25,0-15-6.75-15-15v-15h60"/>
	
		<polyline style="fill-rule:evenodd;clip-rule:evenodd;fill:none;stroke:#000000;stroke-width:15.0001;stroke-miterlimit:22.9256;" points="&#10;&#9;&#9;129.926,459.499 144.926,399.5 272.221,399.5 287.22,459.499 &#9;"/>
	
		<line style="fill-rule:evenodd;clip-rule:evenodd;fill:none;stroke:#000000;stroke-width:15.0001;stroke-miterlimit:22.9256;" x1="138.31" y1="429.499" x2="278.836" y2="429.499"/>
	<path style="fill-rule:evenodd;clip-rule:evenodd;fill:none;stroke:#000000;stroke-width:15.0001;stroke-miterlimit:22.9256;" d="&#10;&#9;&#9;M354.72,332h15c8.25,0,15-6.75,15-15c0-8.25-6.75-15-15-15h-20.455 M62.427,332h-15c-8.249,0-15-6.75-15-15c0-8.25,6.75-15,15-15&#10;&#9;&#9;h20.454"/>
	<path style="fill-rule:evenodd;clip-rule:evenodd;fill:none;stroke:#000000;stroke-width:15.0001;stroke-miterlimit:22.9256;" d="&#10;&#9;&#9;M297.604,264.5h15 M267.604,264.5h15"/>
	<path style="fill-rule:evenodd;clip-rule:evenodd;fill:none;stroke:#000000;stroke-width:15.0001;stroke-miterlimit:22.9256;" d="&#10;&#9;&#9;M412.073,264.5V287c0,8.249,6.751,15,15,15h30c8.249,0,15-6.751,15-15v-82.5l-22.5-37.5H224.779l-22.5,37.5v30 M342.447,264.5&#10;&#9;&#9;h129.626"/>
	<path style="fill-rule:evenodd;clip-rule:evenodd;fill:none;stroke:#000000;stroke-width:15.0001;stroke-miterlimit:22.9256;" d="&#10;&#9;&#9;M256.709,167c3.475-17.116,18.607-30,36.749-30c18.142,0,33.274,12.883,36.749,30 M247.278,234.5l15-30 M472.073,234.5h-44.999&#10;&#9;&#9;l-15-30"/>
	<path style="fill-rule:evenodd;clip-rule:evenodd;fill:none;stroke:#000000;stroke-width:15.0001;stroke-miterlimit:22.9256;" d="&#10;&#9;&#9;M449.573,167l-15-48.222c-2.266-7.286-6.753-13.778-15-13.778H39.927 M254.778,105c-8.248,0-12.734,6.494-15,13.778l-15,48.222"/>
	
		<line style="fill-rule:evenodd;clip-rule:evenodd;fill:none;stroke:#000000;stroke-width:15.0001;stroke-miterlimit:22.9256;" x1="202.279" y1="204.501" x2="472.073" y2="204.501"/>
	<path style="fill-rule:evenodd;clip-rule:evenodd;fill:none;stroke:#000000;stroke-width:15.0001;stroke-miterlimit:22.9256;" d="&#10;&#9;&#9;M449.573,167h15c8.25,0,15-6.75,15-15c0-8.25-6.751-15-15-15h-24.332 M209.779,167c-8.25,0-15-6.75-15-15c0-8.25,6.75-15,15-15&#10;&#9;&#9;h24.331"/>
	<path style="fill-rule:evenodd;clip-rule:evenodd;fill:none;stroke:#000000;stroke-width:15.0001;stroke-miterlimit:22.9256;" d="&#10;&#9;&#9;M302.221,105l-22.5-30H62.427l-22.5,30v77.001c0,8.249,6.75,15,15,15h22.5c8.249,0,15-6.752,15-15v-15 M39.927,167h184.852"/>
	<path style="fill-rule:evenodd;clip-rule:evenodd;fill:none;stroke:#000000;stroke-width:15.0001;stroke-miterlimit:22.9256;" d="&#10;&#9;&#9;M93.606,75c0-17.965,14.563-32.528,32.528-32.528c17.965,0,32.528,14.563,32.528,32.528"/>
	<path style="fill-rule:evenodd;clip-rule:evenodd;fill:none;stroke:#000000;stroke-width:15.0001;stroke-miterlimit:22.9256;" d="&#10;&#9;&#9;M279.721,75l-15-52.5c-2.266-7.932-6.751-15-15-15H144.926 M129.926,7.5h-37.5c-8.248,0-12.734,7.069-14.999,15l-15,52.5"/>
	<path style="fill-rule:evenodd;clip-rule:evenodd;fill:none;stroke:#000000;stroke-width:15.0001;stroke-miterlimit:22.9256;" d="&#10;&#9;&#9;M279.721,75h15c8.25,0,15-6.75,15-15c0-8.25-6.75-15-15-15h-23.571 M62.427,75h-15c-8.25,0-15-6.75-15-15c0-8.25,6.75-15,15-15&#10;&#9;&#9;h23.571"/>
	<path style="fill-rule:evenodd;clip-rule:evenodd;fill:none;stroke:#000000;stroke-width:15.0001;stroke-miterlimit:22.9256;" d="&#10;&#9;&#9;M39.927,135h23.571c8.25,0,15-6.75,15-15v-15"/>
</g>















</svg>
