<svg id="line" height="512" viewBox="0 0 64 64" width="512" xmlns="http://www.w3.org/2000/svg"><path d="m17.06152 4h-9.24511a3.00328 3.00328 0 0 0 -3 3v9.24512a3.00328 3.00328 0 0 0 3 3h9.24511a3.00328 3.00328 0 0 0 3-3v-9.24512a3.00328 3.00328 0 0 0 -3-3zm1 12.24512a1.001 1.001 0 0 1 -1 1h-9.24511a1.001 1.001 0 0 1 -1-1v-9.24512a1.001 1.001 0 0 1 1-1h9.24511a1.001 1.001 0 0 1 1 1z"/><path d="m17.06152 24.37744h-9.24511a3.00328 3.00328 0 0 0 -3 3v9.24512a3.00328 3.00328 0 0 0 3 3h9.24511a3.00328 3.00328 0 0 0 3-3v-9.24512a3.00328 3.00328 0 0 0 -3-3zm1 12.24512a1.001 1.001 0 0 1 -1 1h-9.24511a1.001 1.001 0 0 1 -1-1v-9.24512a1.001 1.001 0 0 1 1-1h9.24511a1.001 1.001 0 0 1 1 1z"/><path d="m17.06152 44.75488h-9.24511a3.00328 3.00328 0 0 0 -3 3v9.24512a3.00328 3.00328 0 0 0 3 3h9.24511a3.00328 3.00328 0 0 0 3-3v-9.24512a3.00328 3.00328 0 0 0 -3-3zm1 12.24512a1.001 1.001 0 0 1 -1 1h-9.24511a1.001 1.001 0 0 1 -1-1v-9.24512a1.001 1.001 0 0 1 1-1h9.24511a1.001 1.001 0 0 1 1 1z"/><path d="m22.627 6.50928h35.55659a1 1 0 0 0 0-2h-35.55659a1 1 0 0 0 0 2z"/><path d="m22.627 12.62256h25.373a1 1 0 0 0 0-2h-25.373a1 1 0 0 0 0 2z"/><path d="m22.627 18.73584h18.46284a1 1 0 0 0 0-2h-18.46284a1 1 0 0 0 0 2z"/><path d="m58.18359 24.88672h-35.55659a1 1 0 0 0 0 2h35.55659a1 1 0 0 0 0-2z"/><path d="m22.627 33h25.373a1 1 0 0 0 0-2h-25.373a1 1 0 0 0 0 2z"/><path d="m22.627 39.11328h18.46284a1 1 0 1 0 0-2h-18.46284a1 1 0 0 0 0 2z"/><path d="m58.18359 45.26416h-35.55659a1 1 0 0 0 0 2h35.55659a1 1 0 0 0 0-2z"/><path d="m48 51.37744h-25.373a1 1 0 0 0 0 2h25.373a1 1 0 0 0 0-2z"/><path d="m41.07715 57.49072h-18.45015a1 1 0 0 0 0 2h18.4502a1 1 0 0 0 0-2z"/></svg>