<svg xmlns="http://www.w3.org/2000/svg" version="1.1" xmlns:xlink="http://www.w3.org/1999/xlink" x="0" y="0" viewBox="0 0 24 24" style="enable-background:new 0 0 512 512" xml:space="preserve" class=""><circle r="12" cx="12" cy="12" fill="#ff2a2a" shape="circle"></circle><g transform="matrix(0.7,0,0,0.7,3.599988269805909,3.5997115015983585)"><path d="M22.512 17.249a2.262 2.262 0 0 0-.803-.95l-3.32-2.358a4.545 4.545 0 0 0-.84-.465 2.127 2.127 0 0 0-1.952.11 3.78 3.78 0 0 0-.9.69l-.72.671a6.773 6.773 0 0 1-1.157-.83 28.431 28.431 0 0 1-1.54-1.423c-.461-.47-.925-.975-1.412-1.54a7.84 7.84 0 0 1-.819-1.106l-.025-.068.682-.71a4.113 4.113 0 0 0 .67-.85 2.092 2.092 0 0 0 .319-1.1 2.295 2.295 0 0 0-.195-.894 4.061 4.061 0 0 0-.484-.85L7.701 2.312a2.377 2.377 0 0 0-.963-.81 2.636 2.636 0 0 0-1.133-.252A3.65 3.65 0 0 0 3.01 2.395 5.344 5.344 0 0 0 1.68 4.33a5.923 5.923 0 0 0-.415 2.209 9.225 9.225 0 0 0 .78 3.564 18.793 18.793 0 0 0 2.043 3.557 29.42 29.42 0 0 0 2.87 3.362 29.788 29.788 0 0 0 3.366 2.873 18.286 18.286 0 0 0 3.588 2.063 9.077 9.077 0 0 0 3.553.79 5.796 5.796 0 0 0 2.235-.435 5.214 5.214 0 0 0 1.91-1.37 4.818 4.818 0 0 0 .803-1.204 3.271 3.271 0 0 0 .322-1.41 2.838 2.838 0 0 0-.223-1.081zm-1.456 1.85a3.32 3.32 0 0 1-.556.837 3.76 3.76 0 0 1-1.373.992 5.97 5.97 0 0 1-4.627-.349 16.81 16.81 0 0 1-3.292-1.894 28.239 28.239 0 0 1-3.19-2.722 27.843 27.843 0 0 1-2.714-3.18A17.182 17.182 0 0 1 3.426 9.52a7.735 7.735 0 0 1-.66-2.98 4.436 4.436 0 0 1 .308-1.656 3.899 3.899 0 0 1 .976-1.41 2.191 2.191 0 0 1 1.555-.724 1.154 1.154 0 0 1 .496.11.912.912 0 0 1 .373.314l2.323 3.275a2.692 2.692 0 0 1 .319.556.884.884 0 0 1 .079.315.65.65 0 0 1-.112.341 2.77 2.77 0 0 1-.449.56l-.747.777a1.28 1.28 0 0 0-.382.932 1.746 1.746 0 0 0 .078.496l.124.296a9.087 9.087 0 0 0 1.021 1.408 34.98 34.98 0 0 0 1.491 1.625 30.274 30.274 0 0 0 1.631 1.507 8.492 8.492 0 0 0 1.424 1.011l.266.118a1.406 1.406 0 0 0 1.453-.296l.762-.754a2.428 2.428 0 0 1 .578-.45.531.531 0 0 1 .648-.027 3.01 3.01 0 0 1 .55.308l3.317 2.355a.756.756 0 0 1 .281.303 1.29 1.29 0 0 1 .106.5 1.778 1.778 0 0 1-.179.77z" data-name="1" fill="#ffffff" opacity="1" data-original="#000000"></path></g></svg>