<svg xmlns="http://www.w3.org/2000/svg" version="1.1" xmlns:xlink="http://www.w3.org/1999/xlink" x="0" y="0" viewBox="0 0 24 24" style="enable-background:new 0 0 512 512" xml:space="preserve" class=""><circle r="12" cx="12" cy="12" fill="#ff2a2a" shape="circle"></circle><g transform="matrix(0.7,0,0,0.7,3.6000000000000014,3.6000000000000014)"><path d="M17 2.75H7c-3.654 0-5.75 2.096-5.75 5.75v7c0 3.654 2.096 5.75 5.75 5.75h10c3.654 0 5.75-2.096 5.75-5.75v-7c0-3.654-2.096-5.75-5.75-5.75zm4.25 12.75c0 2.86-1.39 4.25-4.25 4.25H7c-2.86 0-4.25-1.39-4.25-4.25v-7c0-2.86 1.39-4.25 4.25-4.25h10c2.86 0 4.25 1.39 4.25 4.25zm-3.665-6.968a.75.75 0 0 1-.117 1.053l-3.126 2.5a3.874 3.874 0 0 1-4.685 0l-3.125-2.5a.75.75 0 0 1 .936-1.17l3.126 2.5a2.39 2.39 0 0 0 2.811 0l3.127-2.5a.749.749 0 0 1 1.053.117z" data-name="1" fill="#ffffff" opacity="1" data-original="#000000" class=""></path></g></svg>